Antonio-Regular.ufo
<glyph name="quotedbl" format="1">
  <advance width="944"/>
  <unicode hex="0022"/>
  <outline>
    <contour>
      <point x="535" y="1761" type="line"/>
      <point x="599" y="1125" type="line"/>
      <point x="669" y="1125" type="line"/>
      <point x="734" y="1761" type="line"/>
    </contour>
    <contour>
      <point x="220" y="1761" type="line"/>
      <point x="284" y="1125" type="line"/>
      <point x="354" y="1125" type="line"/>
      <point x="419" y="1761" type="line"/>
    </contour>
  </outline>
</glyph>
<glyph name="numbersign" format="1">
  <advance width="854"/>
  <unicode hex="0023"/>
  <outline>
    <contour>
      <point x="657" y="1761" type="line"/>
      <point x="795" y="1761" type="line"/>
      <point x="713" y="1170" type="line"/>
      <point x="863" y="1170" type="line"/>
      <point x="863" y="1079" type="line"/>
      <point x="700" y="1079" type="line"/>
      <point x="649" y="717" type="line"/>
      <point x="827" y="717" type="line"/>
      <point x="827" y="626" type="line"/>
      <point x="638" y="626" type="line"/>
      <point x="551" y="0" type="line"/>
      <point x="413" y="0" type="line"/>
      <point x="498" y="626" type="line"/>
      <point x="330" y="626" type="line"/>
      <point x="245" y="0" type="line"/>
      <point x="107" y="0" type="line"/>
      <point x="193" y="626" type="line"/>
      <point x="38" y="626" type="line"/>
      <point x="38" y="717" type="line"/>
      <point x="204" y="717" type="line"/>
      <point x="255" y="1079" type="line"/>
      <point x="74" y="1079" type="line"/>
      <point x="74" y="1170" type="line"/>
      <point x="268" y="1170" type="line"/>
      <point x="351" y="1761" type="line"/>
      <point x="489" y="1761" type="line"/>
      <point x="405" y="1170" type="line"/>
      <point x="572" y="1170" type="line"/>
    </contour>
    <contour>
      <point x="511" y="716" type="line"/>
      <point x="561" y="1075" type="line"/>
      <point x="392" y="1075" type="line"/>
      <point x="340" y="716" type="line"/>
    </contour>
  </outline>
</glyph>
<glyph name="dollar" format="1">
  <advance width="881"/>
  <unicode hex="0024"/>
  <outline>
    <contour>
      <point x="401" y="34" type="line"/>
      <point x="401" y="-246" type="line"/>
      <point x="526" y="-246" type="line"/>
      <point x="526" y="34" type="line"/>
    </contour>
    <contour>
      <point x="386" y="1760" type="line"/>
      <point x="386" y="1485" type="line"/>
      <point x="511" y="1485" type="line"/>
      <point x="511" y="1760" type="line"/>
    </contour>
    <component base="s" yOffset="10"/>
  </outline>
</glyph>
<glyph name="percent" format="1">
  <advance width="2178"/>
  <unicode hex="0025"/>
  <outline>
    <contour>
      <point x="1360" y="1760" type="line"/>
      <point x="652" y="0" type="line"/>
      <point x="831" y="0" type="line"/>
      <point x="1531" y="1760" type="line"/>
    </contour>
    <contour>
      <point x="564" y="1621"/>
      <point x="591" y="1575"/>
      <point x="591" y="1433" type="curve" smooth="yes"/>
      <point x="591" y="937" type="line" smooth="yes"/>
      <point x="591" y="792"/>
      <point x="563" y="742"/>
      <point x="466" y="742" type="curve" smooth="yes"/>
      <point x="369" y="742"/>
      <point x="341" y="792"/>
      <point x="341" y="937" type="curve" smooth="yes"/>
      <point x="341" y="1433" type="line" smooth="yes"/>
      <point x="341" y="1574"/>
      <point x="368" y="1621"/>
      <point x="466" y="1621" type="curve" smooth="yes"/>
    </contour>
    <contour>
      <point x="233" y="1782"/>
      <point x="156" y="1675"/>
      <point x="156" y="1364" type="curve" smooth="yes"/>
      <point x="156" y="1009" type="line" smooth="yes"/>
      <point x="156" y="692"/>
      <point x="236" y="581"/>
      <point x="466" y="581" type="curve" smooth="yes"/>
      <point x="697" y="581"/>
      <point x="777" y="692"/>
      <point x="777" y="1009" type="curve" smooth="yes"/>
      <point x="777" y="1364" type="line" smooth="yes"/>
      <point x="777" y="1675"/>
      <point x="700" y="1782"/>
      <point x="466" y="1782" type="curve" smooth="yes"/>
    </contour>
    <contour>
      <point x="1478" y="1181"/>
      <point x="1401" y="1074"/>
      <point x="1401" y="763" type="curve" smooth="yes"/>
      <point x="1401" y="408" type="line" smooth="yes"/>
      <point x="1401" y="91"/>
      <point x="1481" y="-20"/>
      <point x="1712" y="-20" type="curve" smooth="yes"/>
      <point x="1942" y="-20"/>
      <point x="2022" y="91"/>
      <point x="2022" y="408" type="curve" smooth="yes"/>
      <point x="2022" y="763" type="line" smooth="yes"/>
      <point x="2022" y="1074"/>
      <point x="1945" y="1181"/>
      <point x="1712" y="1181" type="curve" smooth="yes"/>
    </contour>
    <contour>
      <point x="1810" y="1020"/>
      <point x="1837" y="974"/>
      <point x="1837" y="832" type="curve" smooth="yes"/>
      <point x="1837" y="336" type="line" smooth="yes"/>
      <point x="1837" y="191"/>
      <point x="1808" y="141"/>
      <point x="1712" y="141" type="curve" smooth="yes"/>
      <point x="1615" y="141"/>
      <point x="1587" y="191"/>
      <point x="1587" y="336" type="curve" smooth="yes"/>
      <point x="1587" y="832" type="line" smooth="yes"/>
      <point x="1587" y="973"/>
      <point x="1614" y="1020"/>
      <point x="1712" y="1020" type="curve" smooth="yes"/>
    </contour>
  </outline>
</glyph>
<glyph name="ampersand" format="1">
  <advance width="981"/>
  <unicode hex="0026"/>
  <outline>
    <contour>
      <point x="191" y="1437" type="curve" smooth="yes"/>
      <point x="191" y="1664"/>
      <point x="303" y="1782"/>
      <point x="495" y="1782" type="curve" smooth="yes"/>
      <point x="716" y="1782"/>
      <point x="788" y="1655"/>
      <point x="788" y="1434" type="curve" smooth="yes"/>
      <point x="788" y="1240"/>
      <point x="672" y="1079"/>
      <point x="549" y="924" type="curve"/>
      <point x="598" y="804"/>
      <point x="654" y="677"/>
      <point x="709" y="554" type="curve"/>
      <point x="757" y="644"/>
      <point x="816" y="741"/>
      <point x="894" y="834" type="curve"/>
      <point x="982" y="690" type="line"/>
      <point x="898" y="590"/>
      <point x="844" y="474"/>
      <point x="794" y="365" type="curve"/>
      <point x="861" y="217"/>
      <point x="921" y="87"/>
      <point x="959" y="0" type="curve"/>
      <point x="775" y="0" type="line"/>
      <point x="759" y="40"/>
      <point x="731" y="100"/>
      <point x="697" y="173" type="curve"/>
      <point x="627" y="60"/>
      <point x="538" y="-20"/>
      <point x="379" y="-20" type="curve" smooth="yes"/>
      <point x="193" y="-20"/>
      <point x="66" y="108"/>
      <point x="66" y="365" type="curve" smooth="yes"/>
      <point x="66" y="606"/>
      <point x="206" y="779"/>
      <point x="346" y="940" type="curve"/>
      <point x="257" y="1152"/>
      <point x="191" y="1342"/>
    </contour>
    <contour>
      <point x="480" y="1098" type="curve"/>
      <point x="564" y="1205"/>
      <point x="627" y="1315"/>
      <point x="627" y="1445" type="curve" smooth="yes"/>
      <point x="627" y="1572"/>
      <point x="608" y="1633"/>
      <point x="510" y="1633" type="curve" smooth="yes"/>
      <point x="384" y="1633"/>
      <point x="385" y="1515"/>
      <point x="385" y="1441" type="curve" smooth="yes"/>
      <point x="385" y="1375"/>
      <point x="423" y="1249"/>
    </contour>
    <contour>
      <point x="610" y="357" type="curve"/>
      <point x="551" y="482"/>
      <point x="485" y="623"/>
      <point x="423" y="763" type="curve"/>
      <point x="335" y="645"/>
      <point x="263" y="524"/>
      <point x="255" y="388" type="curve" smooth="yes"/>
      <point x="247" y="247"/>
      <point x="290" y="155"/>
      <point x="409" y="155" type="curve" smooth="yes"/>
      <point x="496" y="155"/>
      <point x="549" y="237"/>
    </contour>
  </outline>
</glyph>
<glyph name="quotesingle" format="1">
  <advance width="413"/>
  <unicode hex="0027"/>
  <outline>
    <contour>
      <point x="112" y="1761" type="line"/>
      <point x="172" y="1125" type="line"/>
      <point x="244" y="1125" type="line"/>
      <point x="309" y="1761" type="line"/>
    </contour>
  </outline>
</glyph>
<glyph name="parenleft" format="1">
  <advance width="567"/>
  <unicode hex="0028"/>
  <outline>
    <contour>
      <point x="208" y="1811"/>
      <point x="131" y="1744"/>
      <point x="131" y="1381" type="curve" smooth="yes"/>
      <point x="131" y="313" type="line" smooth="yes"/>
      <point x="131" y="-50"/>
      <point x="208" y="-117"/>
      <point x="475" y="-117" type="curve"/>
      <point x="475" y="38" type="line"/>
      <point x="355" y="38"/>
      <point x="336" y="57"/>
      <point x="336" y="309" type="curve" smooth="yes"/>
      <point x="336" y="1385" type="line" smooth="yes"/>
      <point x="336" y="1638"/>
      <point x="355" y="1656"/>
      <point x="475" y="1656" type="curve"/>
      <point x="475" y="1811" type="line"/>
    </contour>
  </outline>
</glyph>
<glyph name="parenright" format="1">
  <advance width="567"/>
  <unicode hex="0029"/>
  <outline>
    <contour>
      <point x="92" y="1656" type="line"/>
      <point x="212" y="1656"/>
      <point x="231" y="1638"/>
      <point x="231" y="1385" type="curve" smooth="yes"/>
      <point x="231" y="309" type="line" smooth="yes"/>
      <point x="231" y="57"/>
      <point x="212" y="38"/>
      <point x="92" y="38" type="curve"/>
      <point x="92" y="-117" type="line"/>
      <point x="359" y="-117"/>
      <point x="437" y="-50"/>
      <point x="437" y="313" type="curve" smooth="yes"/>
      <point x="437" y="1381" type="line" smooth="yes"/>
      <point x="437" y="1744"/>
      <point x="359" y="1811"/>
      <point x="92" y="1811" type="curve"/>
    </contour>
  </outline>
</glyph>
<glyph name="asterisk" format="1">
  <advance width="960"/>
  <unicode hex="002A"/>
  <outline>
    <contour>
      <point x="400" y="1727" type="line"/>
      <point x="560" y="1727" type="line"/>
      <point x="536" y="1454" type="line"/>
      <point x="762" y="1626" type="line"/>
      <point x="843" y="1487" type="line"/>
      <point x="586" y="1361" type="line"/>
      <point x="843" y="1228" type="line"/>
      <point x="762" y="1088" type="line"/>
      <point x="536" y="1266" type="line"/>
      <point x="560" y="988" type="line"/>
      <point x="400" y="988" type="line"/>
      <point x="430" y="1271" type="line"/>
      <point x="203" y="1095" type="line"/>
      <point x="123" y="1235" type="line"/>
      <point x="373" y="1361" type="line"/>
      <point x="117" y="1480" type="line"/>
      <point x="198" y="1619" type="line"/>
      <point x="429" y="1451" type="line"/>
    </contour>
  </outline>
</glyph>
<glyph name="plus" format="1">
  <advance width="808"/>
  <unicode hex="002B"/>
  <outline>
    <contour>
      <point x="327" y="1137" type="line"/>
      <point x="327" y="891" type="line"/>
      <point x="103" y="891" type="line"/>
      <point x="103" y="751" type="line"/>
      <point x="327" y="751" type="line"/>
      <point x="327" y="501" type="line"/>
      <point x="476" y="501" type="line"/>
      <point x="476" y="751" type="line"/>
      <point x="703" y="751" type="line"/>
      <point x="703" y="891" type="line"/>
      <point x="476" y="891" type="line"/>
      <point x="476" y="1137" type="line"/>
    </contour>
  </outline>
</glyph>
<glyph name="comma" format="1">
  <advance width="462"/>
  <unicode hex="002C"/>
  <outline>
    <contour>
      <point x="119" y="235" type="line"/>
      <point x="377" y="235" type="line"/>
      <point x="377" y="9" type="line"/>
      <point x="276" y="-344" type="line"/>
      <point x="170" y="-344" type="line"/>
      <point x="243" y="0" type="line"/>
      <point x="119" y="0" type="line"/>
    </contour>
  </outline>
</glyph>
<glyph name="period" format="1">
  <advance width="532"/>
  <unicode hex="002E"/>
  <outline>
    <contour>
      <point x="171" y="198" type="line"/>
      <point x="346" y="198" type="line"/>
      <point x="346" y="0" type="line"/>
      <point x="171" y="0" type="line"/>
    </contour>
  </outline>
</glyph>
<glyph name="slash" format="1">
  <advance width="783"/>
  <unicode hex="002F"/>
  <outline>
    <contour>
      <point x="526" y="1768" type="line"/>
      <point x="709" y="1768" type="line"/>
      <point x="269" y="0" type="line"/>
      <point x="87" y="0" type="line"/>
    </contour>
  </outline>
</glyph>
<glyph name="zero" format="1">
  <advance width="854"/>
  <unicode hex="0030"/>
  <outline>
    <contour>
      <point x="124" y="1316" type="line" smooth="yes"/>
      <point x="124" y="1619"/>
      <point x="150" y="1781"/>
      <point x="432" y="1781" type="curve" smooth="yes"/>
      <point x="714" y="1781"/>
      <point x="730" y="1619"/>
      <point x="730" y="1316" type="curve" smooth="yes"/>
      <point x="730" y="475" type="line" smooth="yes"/>
      <point x="730" y="162"/>
      <point x="720" y="-21"/>
      <point x="432" y="-21" type="curve" smooth="yes"/>
      <point x="144" y="-21"/>
      <point x="124" y="162"/>
      <point x="124" y="475" type="curve" smooth="yes"/>
    </contour>
    <contour>
      <point x="534" y="1327" type="line" smooth="yes"/>
      <point x="534" y="1594"/>
      <point x="500" y="1605"/>
      <point x="430" y="1605" type="curve" smooth="yes"/>
      <point x="362" y="1605"/>
      <point x="320" y="1596"/>
      <point x="320" y="1328" type="curve" smooth="yes"/>
      <point x="320" y="470" type="line" smooth="yes"/>
      <point x="320" y="167"/>
      <point x="348" y="154"/>
      <point x="430" y="154" type="curve" smooth="yes"/>
      <point x="507" y="154"/>
      <point x="534" y="168"/>
      <point x="534" y="470" type="curve" smooth="yes"/>
    </contour>
  </outline>
</glyph>
<glyph name="one" format="1">
  <advance width="854"/>
  <unicode hex="0031"/>
  <outline>
    <contour>
      <point x="453" y="1761" type="curve"/>
      <point x="599" y="1761" type="line"/>
      <point x="599" y="0" type="line"/>
      <point x="393" y="0" type="line"/>
      <point x="393" y="1483" type="line"/>
      <point x="345" y="1426"/>
      <point x="199" y="1377"/>
      <point x="125" y="1377" type="curve"/>
      <point x="125" y="1541" type="line"/>
      <point x="231" y="1556"/>
      <point x="397" y="1629"/>
    </contour>
  </outline>
</glyph>
<glyph name="two" format="1">
  <advance width="892"/>
  <unicode hex="0032"/>
  <outline>
    <contour>
      <point x="162" y="1173" type="line" smooth="yes"/>
      <point x="162" y="1553"/>
      <point x="190" y="1780"/>
      <point x="497" y="1780" type="curve" smooth="yes"/>
      <point x="730" y="1780"/>
      <point x="786" y="1536"/>
      <point x="786" y="1293" type="curve" smooth="yes"/>
      <point x="786" y="823"/>
      <point x="446" y="600"/>
      <point x="374" y="155" type="curve"/>
      <point x="759" y="155" type="line"/>
      <point x="759" y="0" type="line"/>
      <point x="174" y="0" type="line"/>
      <point x="174" y="98" type="line" smooth="yes"/>
      <point x="174" y="249"/>
      <point x="261" y="466"/>
      <point x="374" y="685" type="curve"/>
      <point x="381" y="696"/>
      <point x="495" y="922"/>
      <point x="516" y="952" type="curve"/>
      <point x="560" y="1035"/>
      <point x="590" y="1188"/>
      <point x="590" y="1310" type="curve" smooth="yes"/>
      <point x="590" y="1554"/>
      <point x="544" y="1604"/>
      <point x="482" y="1604" type="curve" smooth="yes"/>
      <point x="418" y="1604"/>
      <point x="364" y="1562"/>
      <point x="364" y="1294" type="curve" smooth="yes"/>
      <point x="364" y="1065" type="line"/>
      <point x="162" y="1065" type="line"/>
    </contour>
  </outline>
</glyph>
<glyph name="three" format="1">
  <advance width="908"/>
  <unicode hex="0033"/>
  <outline>
    <contour>
      <point x="118" y="1319" type="line" smooth="yes"/>
      <point x="118" y="1626"/>
      <point x="205" y="1780"/>
      <point x="453" y="1780" type="curve" smooth="yes"/>
      <point x="698" y="1780"/>
      <point x="802" y="1624"/>
      <point x="802" y="1319" type="curve" smooth="yes"/>
      <point x="802" y="1124"/>
      <point x="751" y="974"/>
      <point x="624" y="927" type="curve"/>
      <point x="756" y="867"/>
      <point x="806" y="690"/>
      <point x="806" y="485" type="curve" smooth="yes"/>
      <point x="806" y="148"/>
      <point x="702" y="-20"/>
      <point x="448" y="-20" type="curve" smooth="yes"/>
      <point x="200" y="-20"/>
      <point x="114" y="141"/>
      <point x="114" y="474" type="curve" smooth="yes"/>
      <point x="114" y="552" type="line"/>
      <point x="314" y="552" type="line"/>
      <point x="314" y="471" type="line" smooth="yes"/>
      <point x="314" y="234"/>
      <point x="331" y="155"/>
      <point x="453" y="155" type="curve" smooth="yes"/>
      <point x="572" y="155"/>
      <point x="601" y="250"/>
      <point x="601" y="487" type="curve" smooth="yes"/>
      <point x="601" y="753"/>
      <point x="553" y="841"/>
      <point x="412" y="841" type="curve" smooth="yes"/>
      <point x="355" y="841" type="line"/>
      <point x="355" y="1006" type="line"/>
      <point x="410" y="1006" type="line" smooth="yes"/>
      <point x="548" y="1006"/>
      <point x="599" y="1062"/>
      <point x="599" y="1319" type="curve" smooth="yes"/>
      <point x="599" y="1558"/>
      <point x="539" y="1604"/>
      <point x="454" y="1604" type="curve" smooth="yes"/>
      <point x="365" y="1604"/>
      <point x="321" y="1542"/>
      <point x="321" y="1316" type="curve" smooth="yes"/>
      <point x="321" y="1274" type="line"/>
      <point x="118" y="1274" type="line"/>
    </contour>
  </outline>
</glyph>
<glyph name="four" format="1">
  <advance width="892"/>
  <unicode hex="0034"/>
  <outline>
    <contour>
      <point x="487" y="1761" type="line"/>
      <point x="96" y="477" type="line"/>
      <point x="96" y="332" type="line"/>
      <point x="512" y="332" type="line"/>
      <point x="512" y="-1" type="line"/>
      <point x="700" y="-1" type="line"/>
      <point x="700" y="332" type="line"/>
      <point x="845" y="332" type="line"/>
      <point x="845" y="496" type="line"/>
      <point x="700" y="496" type="line"/>
      <point x="700" y="1761" type="line"/>
    </contour>
    <contour>
      <point x="512" y="496" type="line"/>
      <point x="266" y="496" type="line"/>
      <point x="512" y="1412" type="line"/>
    </contour>
  </outline>
</glyph>
<glyph name="five" format="1">
  <advance width="854"/>
  <unicode hex="0035"/>
  <outline>
    <contour>
      <point x="161" y="1760" type="line"/>
      <point x="714" y="1760" type="line"/>
      <point x="714" y="1574" type="line"/>
      <point x="350" y="1574" type="line"/>
      <point x="350" y="1163" type="line"/>
      <point x="372" y="1206"/>
      <point x="438" y="1233"/>
      <point x="503" y="1233" type="curve" smooth="yes"/>
      <point x="677" y="1233"/>
      <point x="756" y="1116"/>
      <point x="756" y="668" type="curve" smooth="yes"/>
      <point x="756" y="168"/>
      <point x="735" y="-20"/>
      <point x="450" y="-20" type="curve" smooth="yes"/>
      <point x="216" y="-20"/>
      <point x="143" y="132"/>
      <point x="143" y="316" type="curve" smooth="yes"/>
      <point x="143" y="510" type="line"/>
      <point x="343" y="510" type="line"/>
      <point x="343" y="315" type="line" smooth="yes"/>
      <point x="343" y="223"/>
      <point x="365" y="154"/>
      <point x="450" y="154" type="curve" smooth="yes"/>
      <point x="526" y="154"/>
      <point x="557" y="210"/>
      <point x="557" y="326" type="curve" smooth="yes"/>
      <point x="557" y="851" type="line" smooth="yes"/>
      <point x="557" y="985"/>
      <point x="535" y="1058"/>
      <point x="452" y="1058" type="curve" smooth="yes"/>
      <point x="385" y="1058"/>
      <point x="339" y="999"/>
      <point x="339" y="871" type="curve"/>
      <point x="161" y="887" type="line"/>
    </contour>
  </outline>
</glyph>
<glyph name="six" format="1">
  <advance width="892"/>
  <unicode hex="0036"/>
  <outline>
    <contour>
      <point x="202" y="1780"/>
      <point x="107" y="1635"/>
      <point x="107" y="1257" type="curve" smooth="yes"/>
      <point x="107" y="516" type="line" smooth="yes"/>
      <point x="107" y="198"/>
      <point x="171" y="-20"/>
      <point x="470" y="-20" type="curve" smooth="yes"/>
      <point x="748" y="-20"/>
      <point x="821" y="148"/>
      <point x="821" y="462" type="curve" smooth="yes"/>
      <point x="821" y="569" type="line" smooth="yes"/>
      <point x="821" y="945"/>
      <point x="748" y="1110"/>
      <point x="501" y="1102" type="curve" smooth="yes"/>
      <point x="430" y="1101"/>
      <point x="354" y="1071"/>
      <point x="313" y="1016" type="curve"/>
      <point x="313" y="1262" type="line" smooth="yes"/>
      <point x="313" y="1527"/>
      <point x="337" y="1603"/>
      <point x="455" y="1603" type="curve" smooth="yes"/>
      <point x="569" y="1603"/>
      <point x="577" y="1528"/>
      <point x="578" y="1282" type="curve" smooth="yes"/>
      <point x="578" y="1249" type="line"/>
      <point x="777" y="1249" type="line"/>
      <point x="777" y="1309" type="line" smooth="yes"/>
      <point x="775" y="1641"/>
      <point x="707" y="1780"/>
      <point x="464" y="1780" type="curve" smooth="yes"/>
    </contour>
    <contour>
      <point x="590" y="926"/>
      <point x="618" y="834"/>
      <point x="618" y="573" type="curve" smooth="yes"/>
      <point x="618" y="440" type="line" smooth="yes"/>
      <point x="618" y="215"/>
      <point x="586" y="158"/>
      <point x="470" y="158" type="curve" smooth="yes"/>
      <point x="345" y="158"/>
      <point x="313" y="256"/>
      <point x="313" y="482" type="curve" smooth="yes"/>
      <point x="313" y="854" type="line"/>
      <point x="327" y="880"/>
      <point x="391" y="926"/>
      <point x="476" y="926" type="curve" smooth="yes"/>
    </contour>
  </outline>
</glyph>
<glyph name="seven" format="1">
  <advance width="892"/>
  <unicode hex="0037"/>
  <outline>
    <contour>
      <point x="113" y="1761" type="line"/>
      <point x="815" y="1761" type="line"/>
      <point x="815" y="1611" type="line"/>
      <point x="811" y="1570"/>
      <point x="732" y="1388"/>
      <point x="655" y="1113" type="curve"/>
      <point x="570" y="820"/>
      <point x="484" y="431"/>
      <point x="457" y="1" type="curve"/>
      <point x="236" y="1" type="line"/>
      <point x="272" y="481"/>
      <point x="381" y="880"/>
      <point x="476" y="1183" type="curve"/>
      <point x="549" y="1429"/>
      <point x="612" y="1577"/>
      <point x="614" y="1587" type="curve"/>
      <point x="113" y="1587" type="line"/>
    </contour>
  </outline>
</glyph>
<glyph name="eight" format="1">
  <advance width="854"/>
  <unicode hex="0038"/>
  <outline>
    <contour>
      <point x="105" y="1344" type="curve" smooth="yes"/>
      <point x="105" y="1649"/>
      <point x="187" y="1780"/>
      <point x="433" y="1780" type="curve" smooth="yes"/>
      <point x="680" y="1780"/>
      <point x="759" y="1651"/>
      <point x="759" y="1344" type="curve" smooth="yes"/>
      <point x="759" y="1155"/>
      <point x="728" y="1017"/>
      <point x="624" y="946" type="curve"/>
      <point x="715" y="879"/>
      <point x="762" y="682"/>
      <point x="762" y="494" type="curve" smooth="yes"/>
      <point x="762" y="424" type="line" smooth="yes"/>
      <point x="762" y="116"/>
      <point x="668" y="-20"/>
      <point x="432" y="-20" type="curve" smooth="yes"/>
      <point x="197" y="-20"/>
      <point x="97" y="114"/>
      <point x="93" y="417" type="curve" smooth="yes"/>
      <point x="92" y="494" type="line" smooth="yes"/>
      <point x="90" y="685"/>
      <point x="148" y="878"/>
      <point x="244" y="943" type="curve"/>
      <point x="142" y="1016"/>
      <point x="105" y="1157"/>
    </contour>
    <contour>
      <point x="556" y="507" type="line" smooth="yes"/>
      <point x="556" y="751"/>
      <point x="513" y="863"/>
      <point x="433" y="863" type="curve" smooth="yes"/>
      <point x="358" y="863"/>
      <point x="299" y="752"/>
      <point x="299" y="504" type="curve" smooth="yes"/>
      <point x="299" y="435" type="line" smooth="yes"/>
      <point x="299" y="228"/>
      <point x="316" y="154"/>
      <point x="433" y="154" type="curve" smooth="yes"/>
      <point x="549" y="154"/>
      <point x="556" y="227"/>
      <point x="556" y="440" type="curve" smooth="yes"/>
    </contour>
    <contour>
      <point x="561" y="1336" type="curve" smooth="yes"/>
      <point x="561" y="1589"/>
      <point x="518" y="1614"/>
      <point x="431" y="1614" type="curve" smooth="yes"/>
      <point x="347" y="1614"/>
      <point x="303" y="1577"/>
      <point x="303" y="1332" type="curve" smooth="yes"/>
      <point x="303" y="1067"/>
      <point x="353" y="1007"/>
      <point x="431" y="1007" type="curve" smooth="yes"/>
      <point x="505" y="1007"/>
      <point x="561" y="1068"/>
    </contour>
  </outline>
</glyph>
<glyph name="nine" format="1">
  <advance width="892"/>
  <unicode hex="0039"/>
  <outline>
    <contour>
      <point x="114" y="1780"/>
      <point x="67" y="1564"/>
      <point x="67" y="1250" type="curve" smooth="yes"/>
      <point x="67" y="1205" type="line" smooth="yes"/>
      <point x="67" y="854"/>
      <point x="132" y="663"/>
      <point x="376" y="663" type="curve" smooth="yes"/>
      <point x="444" y="663"/>
      <point x="502" y="678"/>
      <point x="536" y="706" type="curve"/>
      <point x="536" y="511" type="line" smooth="yes"/>
      <point x="536" y="262"/>
      <point x="542" y="155"/>
      <point x="427" y="155" type="curve" smooth="yes"/>
      <point x="320" y="155"/>
      <point x="298" y="211"/>
      <point x="297" y="483" type="curve" smooth="yes"/>
      <point x="297" y="513" type="line"/>
      <point x="101" y="513" type="line"/>
      <point x="101" y="449" type="line" smooth="yes"/>
      <point x="105" y="119"/>
      <point x="192" y="-20"/>
      <point x="411" y="-20" type="curve" smooth="yes"/>
      <point x="674" y="-20"/>
      <point x="742" y="158"/>
      <point x="742" y="536" type="curve" smooth="yes"/>
      <point x="742" y="1244" type="line" smooth="yes"/>
      <point x="742" y="1566"/>
      <point x="706" y="1780"/>
      <point x="407" y="1780" type="curve" smooth="yes"/>
    </contour>
    <contour>
      <point x="515" y="1602"/>
      <point x="536" y="1494"/>
      <point x="536" y="1279" type="curve" smooth="yes"/>
      <point x="536" y="884" type="line"/>
      <point x="521" y="851"/>
      <point x="479" y="828"/>
      <point x="408" y="828" type="curve" smooth="yes"/>
      <point x="292" y="828"/>
      <point x="271" y="919"/>
      <point x="271" y="1177" type="curve" smooth="yes"/>
      <point x="271" y="1278" type="line" smooth="yes"/>
      <point x="271" y="1492"/>
      <point x="290" y="1602"/>
      <point x="406" y="1602" type="curve" smooth="yes"/>
    </contour>
  </outline>
</glyph>
<glyph name="colon" format="1">
  <advance width="489"/>
  <unicode hex="003A"/>
  <outline>
    <contour>
      <point x="132" y="1307" type="line"/>
      <point x="357" y="1307" type="line"/>
      <point x="357" y="1047" type="line"/>
      <point x="132" y="1047" type="line"/>
    </contour>
    <contour>
      <point x="132" y="530" type="line"/>
      <point x="357" y="530" type="line"/>
      <point x="357" y="270" type="line"/>
      <point x="132" y="270" type="line"/>
    </contour>
  </outline>
</glyph>
<glyph name="semicolon" format="1">
  <advance width="561"/>
  <unicode hex="003B"/>
  <outline>
    <contour>
      <point x="202" y="534" type="line"/>
      <point x="428" y="534" type="line"/>
      <point x="428" y="291" type="line"/>
      <point x="314" y="-103" type="line"/>
      <point x="190" y="-103" type="line"/>
      <point x="276" y="282" type="line"/>
      <point x="202" y="282" type="line"/>
    </contour>
    <contour>
      <point x="202" y="1234" type="line"/>
      <point x="424" y="1234" type="line"/>
      <point x="424" y="954" type="line"/>
      <point x="202" y="954" type="line"/>
    </contour>
  </outline>
</glyph>
<glyph name="less" format="1">
  <advance width="730"/>
  <unicode hex="003C"/>
  <outline>
    <contour>
      <point x="64" y="860" type="line"/>
      <point x="640" y="1241" type="line"/>
      <point x="640" y="1021" type="line"/>
      <point x="207" y="755" type="line"/>
      <point x="640" y="478" type="line"/>
      <point x="640" y="264" type="line"/>
      <point x="64" y="649" type="line"/>
    </contour>
  </outline>
</glyph>
<glyph name="equal" format="1">
  <advance width="722"/>
  <unicode hex="003D"/>
  <outline>
    <contour>
      <point x="84" y="735" type="line"/>
      <point x="668" y="735" type="line"/>
      <point x="668" y="576" type="line"/>
      <point x="84" y="576" type="line"/>
    </contour>
    <contour>
      <point x="84" y="1050" type="line"/>
      <point x="668" y="1050" type="line"/>
      <point x="668" y="892" type="line"/>
      <point x="84" y="892" type="line"/>
    </contour>
  </outline>
</glyph>
<glyph name="greater" format="1">
  <advance width="730"/>
  <unicode hex="003E"/>
  <outline>
    <contour>
      <point x="87" y="1027" type="line"/>
      <point x="520" y="749" type="line"/>
      <point x="87" y="484" type="line"/>
      <point x="87" y="264" type="line"/>
      <point x="663" y="646" type="line"/>
      <point x="663" y="857" type="line"/>
      <point x="87" y="1241" type="line"/>
    </contour>
  </outline>
</glyph>
<glyph name="question" format="1">
  <advance width="799"/>
  <unicode hex="003F"/>
  <outline>
    <contour>
      <point x="242" y="299" type="line"/>
      <point x="419" y="299" type="line"/>
      <point x="419" y="1" type="line"/>
      <point x="242" y="1" type="line"/>
    </contour>
    <contour>
      <point x="140" y="1370" type="line" smooth="yes"/>
      <point x="140" y="1549"/>
      <point x="156" y="1782"/>
      <point x="427" y="1782" type="curve" smooth="yes"/>
      <point x="698" y="1782"/>
      <point x="716" y="1596"/>
      <point x="716" y="1299" type="curve" smooth="yes"/>
      <point x="716" y="953"/>
      <point x="660" y="787"/>
      <point x="418" y="718" type="curve"/>
      <point x="418" y="494" type="line"/>
      <point x="239" y="494" type="line"/>
      <point x="239" y="810" type="line"/>
      <point x="505" y="892"/>
      <point x="509" y="1017"/>
      <point x="509" y="1360" type="curve" smooth="yes"/>
      <point x="509" y="1536"/>
      <point x="511" y="1604"/>
      <point x="431" y="1604" type="curve" smooth="yes"/>
      <point x="344" y="1604"/>
      <point x="343" y="1542"/>
      <point x="343" y="1356" type="curve" smooth="yes"/>
      <point x="343" y="1160" type="line"/>
      <point x="140" y="1160" type="line"/>
    </contour>
  </outline>
</glyph>
<glyph name="at" format="1">
  <advance width="1522"/>
  <unicode hex="0040"/>
  <outline>
    <contour>
      <point x="124" y="836" type="curve" smooth="yes"/>
      <point x="124" y="1400"/>
      <point x="319" y="1781"/>
      <point x="823" y="1781" type="curve" smooth="yes"/>
      <point x="1226" y="1781"/>
      <point x="1398" y="1440"/>
      <point x="1398" y="910" type="curve" smooth="yes"/>
      <point x="1398" y="604"/>
      <point x="1324" y="337"/>
      <point x="1142" y="337" type="curve" smooth="yes"/>
      <point x="1058" y="337"/>
      <point x="983" y="436"/>
      <point x="958" y="550" type="curve"/>
      <point x="933" y="411"/>
      <point x="850" y="320"/>
      <point x="748" y="320" type="curve" smooth="yes"/>
      <point x="576" y="320"/>
      <point x="453" y="477"/>
      <point x="453" y="804" type="curve" smooth="yes"/>
      <point x="453" y="1093"/>
      <point x="543" y="1548"/>
      <point x="1074" y="1320" type="curve"/>
      <point x="1074" y="672" type="line" smooth="yes"/>
      <point x="1074" y="546"/>
      <point x="1092" y="477"/>
      <point x="1149" y="477" type="curve" smooth="yes"/>
      <point x="1223" y="477"/>
      <point x="1249" y="634"/>
      <point x="1249" y="942" type="curve" smooth="yes"/>
      <point x="1249" y="1286"/>
      <point x="1191" y="1636"/>
      <point x="809" y="1636" type="curve" smooth="yes"/>
      <point x="427" y="1636"/>
      <point x="291" y="1315"/>
      <point x="291" y="833" type="curve" smooth="yes"/>
      <point x="291" y="189"/>
      <point x="585" y="-64"/>
      <point x="1256" y="172" type="curve"/>
      <point x="1279" y="33" type="line"/>
      <point x="480" y="-236"/>
      <point x="124" y="128"/>
    </contour>
    <contour>
      <point x="930" y="718" type="curve" smooth="yes"/>
      <point x="930" y="1242" type="line"/>
      <point x="688" y="1338"/>
      <point x="597" y="1133"/>
      <point x="597" y="810" type="curve" smooth="yes"/>
      <point x="597" y="584"/>
      <point x="635" y="447"/>
      <point x="758" y="447" type="curve" smooth="yes"/>
      <point x="851" y="447"/>
      <point x="930" y="568"/>
    </contour>
  </outline>
</glyph>
<glyph name="A" format="1">
  <advance width="939"/>
  <unicode hex="0041"/>
  <outline>
    <contour>
      <point x="332" y="504" type="line"/>
      <point x="602" y="504" type="line"/>
      <point x="463" y="1434" type="line"/>
      <point x="460" y="1434" type="line"/>
    </contour>
    <contour>
      <point x="333" y="1760" type="line"/>
      <point x="582" y="1760" type="line"/>
      <point x="873" y="0" type="line"/>
      <point x="678" y="0" type="line"/>
      <point x="628" y="336" type="line"/>
      <point x="309" y="336" type="line"/>
      <point x="263" y="0" type="line"/>
      <point x="66" y="0" type="line"/>
    </contour>
  </outline>
</glyph>
<glyph name="B" format="1">
  <advance width="952"/>
  <unicode hex="0042"/>
  <outline>
    <contour>
      <point x="617" y="1361" type="line"/>
      <point x="616" y="1560"/>
      <point x="575" y="1591"/>
      <point x="469" y="1591" type="curve" smooth="yes"/>
      <point x="367" y="1591" type="line"/>
      <point x="367" y="1025" type="line"/>
      <point x="484" y="1025" type="line" smooth="yes"/>
      <point x="596" y="1025"/>
      <point x="617" y="1057"/>
      <point x="617" y="1312" type="curve" smooth="yes"/>
    </contour>
    <contour>
      <point x="643" y="560" type="line" smooth="yes"/>
      <point x="643" y="777"/>
      <point x="619" y="866"/>
      <point x="505" y="866" type="curve" smooth="yes"/>
      <point x="367" y="866" type="line"/>
      <point x="367" y="167" type="line"/>
      <point x="494" y="167" type="line" smooth="yes"/>
      <point x="611" y="167"/>
      <point x="643" y="241"/>
      <point x="643" y="499" type="curve" smooth="yes"/>
    </contour>
    <contour>
      <point x="160" y="1760" type="line"/>
      <point x="478" y="1760" type="line" smooth="yes"/>
      <point x="747" y="1760"/>
      <point x="820" y="1647"/>
      <point x="822" y="1364" type="curve"/>
      <point x="822" y="1326" type="line" smooth="yes"/>
      <point x="822" y="1130"/>
      <point x="793" y="1008"/>
      <point x="689" y="953" type="curve"/>
      <point x="814" y="902"/>
      <point x="851" y="730"/>
      <point x="851" y="530" type="curve" smooth="yes"/>
      <point x="851" y="493" type="line"/>
      <point x="847" y="149"/>
      <point x="763" y="0"/>
      <point x="504" y="0" type="curve" smooth="yes"/>
      <point x="160" y="0" type="line"/>
    </contour>
  </outline>
</glyph>
<glyph name="C" format="1">
  <advance width="915"/>
  <unicode hex="0043"/>
  <outline>
    <contour>
      <point x="187" y="1781"/>
      <point x="121" y="1562"/>
      <point x="121" y="1252" type="curve" smooth="yes"/>
      <point x="121" y="519" type="line" smooth="yes"/>
      <point x="121" y="172"/>
      <point x="210" y="-21"/>
      <point x="467" y="-21" type="curve" smooth="yes"/>
      <point x="730" y="-21"/>
      <point x="808" y="165"/>
      <point x="808" y="517" type="curve" smooth="yes"/>
      <point x="808" y="710" type="line"/>
      <point x="603" y="710" type="line"/>
      <point x="603" y="515" type="line" smooth="yes"/>
      <point x="603" y="259"/>
      <point x="579" y="155"/>
      <point x="468" y="155" type="curve" smooth="yes"/>
      <point x="354" y="155"/>
      <point x="328" y="257"/>
      <point x="328" y="514" type="curve" smooth="yes"/>
      <point x="328" y="1276" type="line" smooth="yes"/>
      <point x="328" y="1488"/>
      <point x="358" y="1602"/>
      <point x="474" y="1602" type="curve" smooth="yes"/>
      <point x="583" y="1602"/>
      <point x="603" y="1494"/>
      <point x="603" y="1275" type="curve" smooth="yes"/>
      <point x="603" y="1079" type="line"/>
      <point x="806" y="1079" type="line"/>
      <point x="806" y="1274" type="line" smooth="yes"/>
      <point x="806" y="1572"/>
      <point x="749" y="1781"/>
      <point x="474" y="1781" type="curve" smooth="yes"/>
    </contour>
    <contour>
      <point x="468" y="1760" type="move" name="top"/>
    </contour>
    <contour>
      <point x="464" y="0" type="move" name="bottom"/>
    </contour>
  </outline>
</glyph>
<glyph name="D" format="1">
  <advance width="949"/>
  <unicode hex="0044"/>
  <outline>
    <contour>
      <point x="622" y="1287" type="line" smooth="yes"/>
      <point x="622" y="1508"/>
      <point x="573" y="1596"/>
      <point x="455" y="1596" type="curve" smooth="yes"/>
      <point x="349" y="1596" type="line"/>
      <point x="349" y="167" type="line"/>
      <point x="455" y="167" type="line" smooth="yes"/>
      <point x="567" y="167"/>
      <point x="622" y="223"/>
      <point x="622" y="477" type="curve" smooth="yes"/>
    </contour>
    <contour>
      <point x="143" y="1760" type="line"/>
      <point x="474" y="1760" type="line" smooth="yes"/>
      <point x="750" y="1760"/>
      <point x="828" y="1579"/>
      <point x="828" y="1282" type="curve" smooth="yes"/>
      <point x="829" y="509" type="line" smooth="yes"/>
      <point x="829" y="152"/>
      <point x="731" y="0"/>
      <point x="467" y="0" type="curve" smooth="yes"/>
      <point x="143" y="0" type="line"/>
    </contour>
  </outline>
</glyph>
<glyph name="E" format="1">
  <advance width="755"/>
  <unicode hex="0045"/>
  <outline>
    <contour>
      <point x="144" y="1760" type="line"/>
      <point x="670" y="1760" type="line"/>
      <point x="670" y="1588" type="line"/>
      <point x="351" y="1588" type="line"/>
      <point x="351" y="986" type="line"/>
      <point x="653" y="986" type="line"/>
      <point x="653" y="814" type="line"/>
      <point x="351" y="814" type="line"/>
      <point x="351" y="172" type="line"/>
      <point x="674" y="172" type="line"/>
      <point x="674" y="0" type="line"/>
      <point x="144" y="0" type="line"/>
    </contour>
  </outline>
</glyph>
<glyph name="F" format="1">
  <advance width="747"/>
  <unicode hex="0046"/>
  <outline>
    <contour>
      <point x="144" y="1760" type="line"/>
      <point x="674" y="1760" type="line"/>
      <point x="674" y="1587" type="line"/>
      <point x="350" y="1587" type="line"/>
      <point x="350" y="1031" type="line"/>
      <point x="654" y="1031" type="line"/>
      <point x="654" y="856" type="line"/>
      <point x="350" y="856" type="line"/>
      <point x="350" y="0" type="line"/>
      <point x="144" y="0" type="line"/>
    </contour>
  </outline>
</glyph>
<glyph name="G" format="1">
  <advance width="942"/>
  <unicode hex="0047"/>
  <outline>
    <contour>
      <point x="124" y="1262" type="line" smooth="yes"/>
      <point x="124" y="1570"/>
      <point x="199" y="1781"/>
      <point x="482" y="1781" type="curve" smooth="yes"/>
      <point x="774" y="1781"/>
      <point x="813" y="1568"/>
      <point x="813" y="1258" type="curve" smooth="yes"/>
      <point x="813" y="1122" type="line"/>
      <point x="613" y="1122" type="line"/>
      <point x="613" y="1351" type="line" smooth="yes"/>
      <point x="613" y="1522"/>
      <point x="588" y="1602"/>
      <point x="482" y="1602" type="curve" smooth="yes"/>
      <point x="368" y="1602"/>
      <point x="331" y="1517"/>
      <point x="331" y="1271" type="curve" smooth="yes"/>
      <point x="331" y="531" type="line" smooth="yes"/>
      <point x="331" y="261"/>
      <point x="356" y="155"/>
      <point x="476" y="155" type="curve" smooth="yes"/>
      <point x="590" y="155"/>
      <point x="623" y="261"/>
      <point x="623" y="535" type="curve" smooth="yes"/>
      <point x="623" y="764" type="line"/>
      <point x="480" y="764" type="line"/>
      <point x="480" y="924" type="line"/>
      <point x="813" y="924" type="line"/>
      <point x="813" y="0" type="line"/>
      <point x="704" y="0" type="line"/>
      <point x="676" y="136" type="line"/>
      <point x="638" y="37"/>
      <point x="556" y="-17"/>
      <point x="441" y="-17" type="curve" smooth="yes"/>
      <point x="237" y="-17"/>
      <point x="124" y="139"/>
      <point x="124" y="524" type="curve" smooth="yes"/>
    </contour>
  </outline>
</glyph>
<glyph name="H" format="1">
  <advance width="984"/>
  <unicode hex="0048"/>
  <outline>
    <contour>
      <point x="633" y="1760" type="line"/>
      <point x="633" y="1022" type="line"/>
      <point x="351" y="1022" type="line"/>
      <point x="351" y="1760" type="line"/>
      <point x="144" y="1760" type="line"/>
      <point x="144" y="0" type="line"/>
      <point x="351" y="0" type="line"/>
      <point x="351" y="853" type="line"/>
      <point x="633" y="853" type="line"/>
      <point x="633" y="0" type="line"/>
      <point x="840" y="0" type="line"/>
      <point x="840" y="1760" type="line"/>
    </contour>
    <contour>
      <point x="492" y="0" type="move" name="center"/>
    </contour>
    <contour>
      <point x="492" y="0" type="move" name="top"/>
    </contour>
  </outline>
</glyph>
<glyph name="I" format="1">
  <advance width="495"/>
  <unicode hex="0049"/>
  <outline>
    <contour>
      <point x="144" y="1760" type="line"/>
      <point x="351" y="1760" type="line"/>
      <point x="351" y="0" type="line"/>
      <point x="144" y="0" type="line"/>
    </contour>
  </outline>
</glyph>
<glyph name="J" format="1">
  <advance width="858"/>
  <unicode hex="004A"/>
  <outline>
    <contour>
      <point x="511" y="1760" type="line"/>
      <point x="718" y="1760" type="line"/>
      <point x="718" y="426" type="line" smooth="yes"/>
      <point x="718" y="130"/>
      <point x="615" y="-21"/>
      <point x="404" y="-21" type="curve" smooth="yes"/>
      <point x="181" y="-21"/>
      <point x="82" y="115"/>
      <point x="82" y="389" type="curve" smooth="yes"/>
      <point x="82" y="619" type="line"/>
      <point x="284" y="619" type="line"/>
      <point x="284" y="402" type="line" smooth="yes"/>
      <point x="284" y="268"/>
      <point x="288" y="155"/>
      <point x="398" y="155" type="curve" smooth="yes"/>
      <point x="508" y="155"/>
      <point x="511" y="261"/>
      <point x="511" y="418" type="curve" smooth="yes"/>
    </contour>
  </outline>
</glyph>
<glyph name="K" format="1">
  <advance width="894"/>
  <unicode hex="004B"/>
  <outline>
    <contour>
      <point x="664" y="1760" type="line"/>
      <point x="872" y="1760" type="line"/>
      <point x="544" y="891" type="line"/>
      <point x="895" y="0" type="line"/>
      <point x="679" y="0" type="line"/>
      <point x="353" y="842" type="line"/>
      <point x="353" y="0" type="line"/>
      <point x="144" y="0" type="line"/>
      <point x="144" y="1760" type="line"/>
      <point x="351" y="1760" type="line"/>
      <point x="351" y="921" type="line"/>
    </contour>
  </outline>
</glyph>
<glyph name="L" format="1">
  <advance width="712"/>
  <unicode hex="004C"/>
  <outline>
    <contour>
      <point x="144" y="1760" type="line"/>
      <point x="351" y="1760" type="line"/>
      <point x="351" y="171" type="line"/>
      <point x="676" y="171" type="line"/>
      <point x="676" y="0" type="line"/>
      <point x="144" y="0" type="line"/>
    </contour>
  </outline>
</glyph>
<glyph name="M" format="1">
  <advance width="1296"/>
  <unicode hex="004D"/>
  <outline>
    <contour>
      <point x="893" y="1760" type="line"/>
      <point x="1152" y="1760" type="line"/>
      <point x="1152" y="0" type="line"/>
      <point x="968" y="0" type="line"/>
      <point x="968" y="706" type="line"/>
      <point x="985" y="1364" type="line"/>
      <point x="746" y="3" type="line"/>
      <point x="559" y="3" type="line"/>
      <point x="310" y="1364" type="line"/>
      <point x="327" y="706" type="line"/>
      <point x="327" y="0" type="line"/>
      <point x="144" y="0" type="line"/>
      <point x="144" y="1760" type="line"/>
      <point x="402" y="1760" type="line"/>
      <point x="654" y="313" type="line"/>
    </contour>
  </outline>
</glyph>
<glyph name="O" format="1">
  <advance width="938"/>
  <unicode hex="004F"/>
  <outline>
    <contour>
      <point x="194" y="1782"/>
      <point x="121" y="1585"/>
      <point x="121" y="1282" type="curve" smooth="yes"/>
      <point x="121" y="506" type="line" smooth="yes"/>
      <point x="121" y="153"/>
      <point x="207" y="-20"/>
      <point x="471" y="-20" type="curve" smooth="yes"/>
      <point x="735" y="-20"/>
      <point x="817" y="153"/>
      <point x="817" y="506" type="curve" smooth="yes"/>
      <point x="817" y="1282" type="line" smooth="yes"/>
      <point x="817" y="1585"/>
      <point x="758" y="1782"/>
      <point x="476" y="1782" type="curve" smooth="yes"/>
    </contour>
    <contour>
      <point x="588" y="1604"/>
      <point x="610" y="1505"/>
      <point x="610" y="1294" type="curve" smooth="yes"/>
      <point x="610" y="504" type="line" smooth="yes"/>
      <point x="610" y="246"/>
      <point x="585" y="158"/>
      <point x="471" y="158" type="curve" smooth="yes"/>
      <point x="352" y="158"/>
      <point x="328" y="244"/>
      <point x="328" y="504" type="curve" smooth="yes"/>
      <point x="328" y="1295" type="line" smooth="yes"/>
      <point x="328" y="1506"/>
      <point x="360" y="1604"/>
      <point x="476" y="1604" type="curve" smooth="yes"/>
    </contour>
    <contour>
      <point x="469" y="1762" type="move" name="top"/>
    </contour>
  </outline>
</glyph>
<glyph name="P" format="1">
  <advance width="890"/>
  <unicode hex="0050"/>
  <outline>
    <contour>
      <point x="623" y="1263" type="line" smooth="yes"/>
      <point x="623" y="1489"/>
      <point x="600" y="1596"/>
      <point x="482" y="1596" type="curve" smooth="yes"/>
      <point x="351" y="1596" type="line"/>
      <point x="351" y="863" type="line"/>
      <point x="477" y="863" type="line" smooth="yes"/>
      <point x="598" y="863"/>
      <point x="623" y="955"/>
      <point x="623" y="1229" type="curve" smooth="yes"/>
    </contour>
    <contour>
      <point x="144" y="1760" type="line"/>
      <point x="498" y="1760" type="line" smooth="yes"/>
      <point x="779" y="1760"/>
      <point x="827" y="1566"/>
      <point x="829" y="1256" type="curve" smooth="yes"/>
      <point x="830" y="1253"/>
      <point x="830" y="1232"/>
      <point x="830" y="1229" type="curve" smooth="yes"/>
      <point x="830" y="874"/>
      <point x="763" y="691"/>
      <point x="498" y="691" type="curve" smooth="yes"/>
      <point x="351" y="691" type="line"/>
      <point x="351" y="0" type="line"/>
      <point x="144" y="0" type="line"/>
    </contour>
  </outline>
</glyph>
<glyph name="Q" format="1">
  <advance width="944"/>
  <unicode hex="0051"/>
  <outline>
    <component base="O"/>
    <contour>
      <point x="430" y="-11" type="line"/>
      <point x="569" y="56" type="line"/>
      <point x="769" y="-176" type="line"/>
      <point x="667" y="-269" type="line"/>
    </contour>
  </outline>
</glyph>
<glyph name="R" format="1">
  <advance width="953"/>
  <unicode hex="0052"/>
  <outline>
    <contour>
      <point x="144" y="1760" type="line"/>
      <point x="144" y="0" type="line"/>
      <point x="351" y="0" type="line"/>
      <point x="351" y="850" type="line"/>
      <point x="474" y="843" type="line" smooth="yes"/>
      <point x="611" y="842"/>
      <point x="623" y="793"/>
      <point x="623" y="593" type="curve" smooth="yes"/>
      <point x="623" y="247"/>
      <point x="624" y="30"/>
      <point x="639" y="0" type="curve"/>
      <point x="845" y="0" type="line"/>
      <point x="829" y="42"/>
      <point x="829" y="243"/>
      <point x="829" y="301" type="curve" smooth="yes"/>
      <point x="829" y="775"/>
      <point x="796" y="906"/>
      <point x="667" y="928" type="curve"/>
      <point x="793" y="965"/>
      <point x="828" y="1094"/>
      <point x="828" y="1311" type="curve" smooth="yes"/>
      <point x="828" y="1612"/>
      <point x="792" y="1760"/>
      <point x="513" y="1760" type="curve" smooth="yes"/>
    </contour>
    <contour>
      <point x="602" y="1596"/>
      <point x="623" y="1553"/>
      <point x="623" y="1329" type="curve" smooth="yes"/>
      <point x="623" y="1317" type="line" smooth="yes"/>
      <point x="623" y="1046"/>
      <point x="597" y="1002"/>
      <point x="483" y="1002" type="curve" smooth="yes"/>
      <point x="351" y="1002" type="line"/>
      <point x="351" y="1596" type="line"/>
      <point x="481" y="1596" type="line" smooth="yes"/>
    </contour>
    <contour>
      <point x="482" y="1760" type="move" name="top"/>
    </contour>
    <contour>
      <point x="482" y="0" type="move" name="bottom"/>
    </contour>
  </outline>
</glyph>
<glyph name="S" format="1">
  <advance width="828"/>
  <unicode hex="0053"/>
  <outline>
    <contour>
      <point x="79" y="1349" type="curve" smooth="yes"/>
      <point x="79" y="1614"/>
      <point x="146" y="1782"/>
      <point x="419" y="1782" type="curve" smooth="yes"/>
      <point x="705" y="1782"/>
      <point x="741" y="1573"/>
      <point x="741" y="1269" type="curve" smooth="yes"/>
      <point x="741" y="1165" type="line"/>
      <point x="543" y="1165" type="line"/>
      <point x="543" y="1283" type="line" smooth="yes"/>
      <point x="543" y="1496"/>
      <point x="528" y="1605"/>
      <point x="419" y="1605" type="curve" smooth="yes"/>
      <point x="318" y="1605"/>
      <point x="278" y="1534"/>
      <point x="278" y="1374" type="curve" smooth="yes"/>
      <point x="278" y="1233"/>
      <point x="330" y="1187"/>
      <point x="431" y="1082" type="curve"/>
      <point x="551" y="955" type="line" smooth="yes"/>
      <point x="677" y="823"/>
      <point x="767" y="665"/>
      <point x="767" y="449" type="curve" smooth="yes"/>
      <point x="767" y="157"/>
      <point x="699" y="-20"/>
      <point x="428" y="-20" type="curve" smooth="yes"/>
      <point x="142" y="-20"/>
      <point x="88" y="198"/>
      <point x="88" y="509" type="curve" smooth="yes"/>
      <point x="88" y="680" type="line"/>
      <point x="289" y="680" type="line"/>
      <point x="289" y="501" type="line" smooth="yes"/>
      <point x="289" y="254"/>
      <point x="313" y="157"/>
      <point x="430" y="157" type="curve" smooth="yes"/>
      <point x="552" y="157"/>
      <point x="564" y="237"/>
      <point x="564" y="443" type="curve" smooth="yes"/>
      <point x="564" y="600"/>
      <point x="507" y="705"/>
      <point x="403" y="809" type="curve" smooth="yes"/>
      <point x="288" y="924" type="line" smooth="yes"/>
      <point x="188" y="1025"/>
      <point x="79" y="1151"/>
    </contour>
  </outline>
</glyph>
<glyph name="T" format="1">
  <advance width="637"/>
  <unicode hex="0054"/>
  <outline>
    <contour>
      <point x="28" y="1760" type="line"/>
      <point x="28" y="1588" type="line"/>
      <point x="222" y="1588" type="line"/>
      <point x="222" y="0" type="line"/>
      <point x="428" y="0" type="line"/>
      <point x="428" y="1588" type="line"/>
      <point x="609" y="1588" type="line"/>
      <point x="609" y="1760" type="line"/>
    </contour>
    <contour>
      <point x="319" y="901" type="move" name="center"/>
    </contour>
    <contour>
      <point x="319" y="0" type="move" name="bottom"/>
    </contour>
    <contour>
      <point x="319" y="1760" type="move" name="top"/>
    </contour>
  </outline>
</glyph>
<glyph name="U" format="1">
  <advance width="963"/>
  <unicode hex="0055"/>
  <outline>
    <contour>
      <point x="623" y="1760" type="line"/>
      <point x="829" y="1760" type="line"/>
      <point x="829" y="452" type="line" smooth="yes"/>
      <point x="829" y="132"/>
      <point x="744" y="-21"/>
      <point x="483" y="-21" type="curve" smooth="yes"/>
      <point x="222" y="-21"/>
      <point x="134" y="132"/>
      <point x="134" y="452" type="curve" smooth="yes"/>
      <point x="134" y="1760" type="line"/>
      <point x="341" y="1760" type="line"/>
      <point x="341" y="457" type="line" smooth="yes"/>
      <point x="341" y="267"/>
      <point x="347" y="154"/>
      <point x="483" y="154" type="curve" smooth="yes"/>
      <point x="620" y="154"/>
      <point x="623" y="266"/>
      <point x="623" y="456" type="curve" smooth="yes"/>
    </contour>
  </outline>
</glyph>
<glyph name="V" format="1">
  <advance width="921"/>
  <unicode hex="0056"/>
  <outline>
    <contour>
      <point x="666" y="1760" type="line"/>
      <point x="565" y="1015" type="line"/>
      <point x="478" y="360" type="line"/>
      <point x="474" y="360" type="line"/>
      <point x="374" y="1015" type="line"/>
      <point x="257" y="1760" type="line"/>
      <point x="60" y="1760" type="line"/>
      <point x="353" y="0" type="line"/>
      <point x="594" y="0" type="line"/>
      <point x="861" y="1760" type="line"/>
    </contour>
  </outline>
</glyph>
<glyph name="W" format="1">
  <advance width="1359"/>
  <unicode hex="0057"/>
  <outline>
    <contour>
      <point x="1106" y="1760" type="line"/>
      <point x="1296" y="1760" type="line"/>
      <point x="1088" y="0" type="line"/>
      <point x="883" y="0" type="line"/>
      <point x="695" y="1299" type="line"/>
      <point x="496" y="0" type="line"/>
      <point x="296" y="0" type="line"/>
      <point x="64" y="1760" type="line"/>
      <point x="255" y="1760" type="line"/>
      <point x="405" y="411" type="line"/>
      <point x="605" y="1760" type="line"/>
      <point x="774" y="1760" type="line"/>
      <point x="979" y="411" type="line"/>
    </contour>
  </outline>
</glyph>
<glyph name="X" format="1">
  <advance width="814"/>
  <unicode hex="0058"/>
  <outline>
    <contour>
      <point x="63" y="1760" type="line"/>
      <point x="581" y="0" type="line"/>
      <point x="761" y="0" type="line"/>
      <point x="244" y="1760" type="line"/>
    </contour>
    <contour>
      <point x="567" y="1760" type="line"/>
      <point x="366" y="978" type="line"/>
      <point x="319" y="978" type="line"/>
      <point x="55" y="0" type="line"/>
      <point x="244" y="0" type="line"/>
      <point x="444" y="770" type="line"/>
      <point x="487" y="775" type="line"/>
      <point x="753" y="1760" type="line"/>
    </contour>
  </outline>
</glyph>
<glyph name="Y" format="1">
  <advance width="836"/>
  <unicode hex="0059"/>
  <outline>
    <contour>
      <point x="614" y="1760" type="line"/>
      <point x="433" y="1040" type="line"/>
      <point x="429" y="1040" type="line"/>
      <point x="221" y="1760" type="line"/>
      <point x="20" y="1760" type="line"/>
      <point x="326" y="739" type="line"/>
      <point x="326" y="0" type="line"/>
      <point x="533" y="0" type="line"/>
      <point x="533" y="739" type="line"/>
      <point x="817" y="1760" type="line"/>
    </contour>
    <contour>
      <point x="424" y="1760" type="move" name="top"/>
    </contour>
  </outline>
</glyph>
<glyph name="Z" format="1">
  <advance width="690"/>
  <unicode hex="005A"/>
  <outline>
    <contour>
      <point x="102" y="1760" type="line"/>
      <point x="646" y="1760" type="line"/>
      <point x="646" y="1602" type="line"/>
      <point x="283" y="172" type="line"/>
      <point x="638" y="172" type="line"/>
      <point x="638" y="0" type="line"/>
      <point x="69" y="0" type="line"/>
      <point x="69" y="179" type="line"/>
      <point x="432" y="1588" type="line"/>
      <point x="102" y="1588" type="line"/>
    </contour>
  </outline>
</glyph>
<glyph name="bracketleft" format="1">
  <advance width="764"/>
  <unicode hex="005B"/>
  <outline>
    <contour>
      <point x="217" y="1761" type="line"/>
      <point x="217" y="0" type="line"/>
      <point x="632" y="0" type="line"/>
      <point x="632" y="160" type="line"/>
      <point x="423" y="160" type="line"/>
      <point x="423" y="1601" type="line"/>
      <point x="632" y="1601" type="line"/>
      <point x="632" y="1761" type="line"/>
    </contour>
  </outline>
</glyph>
<glyph name="backslash" format="1">
  <advance width="868"/>
  <unicode hex="005C"/>
  <outline>
    <contour>
      <point x="115" y="1761" type="line"/>
      <point x="526" y="0" type="line"/>
      <point x="707" y="0" type="line"/>
      <point x="297" y="1761" type="line"/>
    </contour>
  </outline>
</glyph>
<glyph name="bracketright" format="1">
  <advance width="764"/>
  <unicode hex="005D"/>
  <outline>
    <contour>
      <point x="166" y="1761" type="line"/>
      <point x="581" y="1761" type="line"/>
      <point x="581" y="0" type="line"/>
      <point x="166" y="0" type="line"/>
      <point x="166" y="160" type="line"/>
      <point x="376" y="160" type="line"/>
      <point x="376" y="1601" type="line"/>
      <point x="166" y="1601" type="line"/>
    </contour>
  </outline>
</glyph>
<glyph name="asciicircum" format="1">
  <advance width="1030"/>
  <unicode hex="005E"/>
  <outline>
    <contour>
      <point x="384" y="1500" type="line"/>
      <point x="645" y="1500" type="line"/>
      <point x="886" y="577" type="line"/>
      <point x="685" y="577" type="line"/>
      <point x="515" y="1340" type="line"/>
      <point x="345" y="577" type="line"/>
      <point x="143" y="577" type="line"/>
    </contour>
  </outline>
</glyph>
<glyph name="grave" format="1">
  <advance width="650"/>
  <unicode hex="0060"/>
  <outline>
    <contour>
      <point x="121" y="492" type="line"/>
      <point x="492" y="398" type="line"/>
      <point x="492" y="509" type="line"/>
      <point x="121" y="703" type="line"/>
    </contour>
    <contour>
      <point x="303" y="300" type="move" name="_top"/>
    </contour>
  </outline>
</glyph>
<glyph name="a" format="1">
  <advance width="926"/>
  <unicode hex="0061"/>
  <outline>
    <contour>
      <point x="145" y="1066" type="line" smooth="yes"/>
      <point x="145" y="1322"/>
      <point x="189" y="1518"/>
      <point x="475" y="1518" type="curve" smooth="yes"/>
      <point x="746" y="1518"/>
      <point x="793" y="1343"/>
      <point x="793" y="1021" type="curve" smooth="yes"/>
      <point x="793" y="0" type="line"/>
      <point x="587" y="0" type="line"/>
      <point x="587" y="130" type="line"/>
      <point x="569" y="69"/>
      <point x="500" y="-13"/>
      <point x="383" y="-13" type="curve" smooth="yes"/>
      <point x="201" y="-13"/>
      <point x="127" y="136"/>
      <point x="126" y="385" type="curve"/>
      <point x="126" y="531" type="line" smooth="yes"/>
      <point x="126" y="796"/>
      <point x="320" y="853"/>
      <point x="586" y="960" type="curve"/>
      <point x="586" y="1076" type="line" smooth="yes"/>
      <point x="586" y="1267"/>
      <point x="579" y="1347"/>
      <point x="471" y="1347" type="curve" smooth="yes"/>
      <point x="364" y="1347"/>
      <point x="349" y="1267"/>
      <point x="349" y="1075" type="curve" smooth="yes"/>
      <point x="349" y="1023" type="line"/>
      <point x="145" y="1023" type="line"/>
    </contour>
    <contour>
      <point x="586" y="827" type="line"/>
      <point x="380" y="735"/>
      <point x="333" y="701"/>
      <point x="333" y="530" type="curve" smooth="yes"/>
      <point x="333" y="391" type="line" smooth="yes"/>
      <point x="333" y="221"/>
      <point x="356" y="153"/>
      <point x="441" y="153" type="curve" smooth="yes"/>
      <point x="513" y="153"/>
      <point x="569" y="211"/>
      <point x="586" y="256" type="curve"/>
    </contour>
  </outline>
</glyph>
<glyph name="b" format="1">
  <advance width="940"/>
  <unicode hex="0062"/>
  <outline>
    <contour>
      <point x="610" y="1067" type="line" smooth="yes"/>
      <point x="610" y="1234"/>
      <point x="599" y="1346"/>
      <point x="494" y="1346" type="curve" smooth="yes"/>
      <point x="404" y="1346"/>
      <point x="354" y="1304"/>
      <point x="354" y="1066" type="curve" smooth="yes"/>
      <point x="354" y="458" type="line" smooth="yes"/>
      <point x="354" y="255"/>
      <point x="376" y="154"/>
      <point x="490" y="154" type="curve"/>
      <point x="590" y="155"/>
      <point x="610" y="250"/>
      <point x="610" y="463" type="curve" smooth="yes"/>
    </contour>
    <contour>
      <point x="354" y="1381" type="line"/>
      <point x="377" y="1466"/>
      <point x="464" y="1518"/>
      <point x="545" y="1518" type="curve" smooth="yes"/>
      <point x="768" y="1518"/>
      <point x="816" y="1310"/>
      <point x="816" y="1040" type="curve" smooth="yes"/>
      <point x="816" y="463" type="line" smooth="yes"/>
      <point x="816" y="192"/>
      <point x="770" y="-13"/>
      <point x="558" y="-13" type="curve" smooth="yes"/>
      <point x="476" y="-13"/>
      <point x="396" y="25"/>
      <point x="354" y="126" type="curve"/>
      <point x="354" y="0" type="line"/>
      <point x="149" y="0" type="line"/>
      <point x="149" y="1779" type="line"/>
      <point x="354" y="1779" type="line"/>
    </contour>
  </outline>
</glyph>
<glyph name="e" format="1">
  <advance width="893"/>
  <unicode hex="0065"/>
  <outline>
    <contour>
      <point x="573" y="1073" type="line" smooth="yes"/>
      <point x="573" y="1252"/>
      <point x="567" y="1349"/>
      <point x="462" y="1349" type="curve" smooth="yes"/>
      <point x="343" y="1349"/>
      <point x="329" y="1233"/>
      <point x="329" y="1066" type="curve" smooth="yes"/>
      <point x="329" y="882" type="line"/>
      <point x="573" y="882" type="line"/>
    </contour>
    <contour>
      <point x="124" y="1035" type="line" smooth="yes"/>
      <point x="124" y="1317"/>
      <point x="190" y="1518"/>
      <point x="462" y="1518" type="curve" smooth="yes"/>
      <point x="737" y="1518"/>
      <point x="778" y="1315"/>
      <point x="778" y="1026" type="curve" smooth="yes"/>
      <point x="778" y="743" type="line"/>
      <point x="330" y="743" type="line"/>
      <point x="330" y="444" type="line" smooth="yes"/>
      <point x="330" y="254"/>
      <point x="340" y="153"/>
      <point x="456" y="153" type="curve" smooth="yes"/>
      <point x="569" y="153"/>
      <point x="573" y="265"/>
      <point x="573" y="441" type="curve" smooth="yes"/>
      <point x="573" y="562" type="line"/>
      <point x="774" y="562" type="line"/>
      <point x="774" y="498" type="line" smooth="yes"/>
      <point x="774" y="186"/>
      <point x="747" y="-18"/>
      <point x="454" y="-18" type="curve" smooth="yes"/>
      <point x="167" y="-18"/>
      <point x="124" y="192"/>
      <point x="124" y="505" type="curve" smooth="yes"/>
    </contour>
  </outline>
</glyph>
<glyph name="f" format="1">
  <advance width="623"/>
  <unicode hex="0066"/>
  <outline>
    <contour>
      <point x="200" y="1515" type="line" smooth="yes"/>
      <point x="200" y="1688"/>
      <point x="271" y="1786"/>
      <point x="432" y="1786" type="curve" smooth="yes"/>
      <point x="511" y="1786"/>
      <point x="575" y="1767"/>
      <point x="581" y="1765" type="curve"/>
      <point x="581" y="1622" type="line"/>
      <point x="554" y="1626"/>
      <point x="530" y="1628"/>
      <point x="510" y="1628" type="curve" smooth="yes"/>
      <point x="420" y="1628"/>
      <point x="405" y="1588"/>
      <point x="405" y="1523" type="curve" smooth="yes"/>
      <point x="405" y="1442" type="line"/>
      <point x="581" y="1442" type="line"/>
      <point x="581" y="1291" type="line"/>
      <point x="405" y="1291" type="line"/>
      <point x="405" y="0" type="line"/>
      <point x="200" y="0" type="line"/>
      <point x="200" y="1291" type="line"/>
      <point x="71" y="1291" type="line"/>
      <point x="71" y="1442" type="line"/>
      <point x="200" y="1442" type="line"/>
    </contour>
  </outline>
</glyph>
<glyph name="g" format="1">
  <advance width="929"/>
  <unicode hex="0067"/>
  <outline>
    <contour>
      <point x="583" y="1068" type="line" smooth="yes"/>
      <point x="583" y="1250"/>
      <point x="560" y="1347"/>
      <point x="456" y="1347" type="curve" smooth="yes"/>
      <point x="341" y="1347"/>
      <point x="328" y="1233"/>
      <point x="328" y="1070" type="curve" smooth="yes"/>
      <point x="328" y="603" type="line" smooth="yes"/>
      <point x="328" y="404"/>
      <point x="354" y="303"/>
      <point x="466" y="303" type="curve" smooth="yes"/>
      <point x="546" y="303"/>
      <point x="583" y="359"/>
      <point x="583" y="605" type="curve" smooth="yes"/>
    </contour>
    <contour>
      <point x="122" y="1038" type="line" smooth="yes"/>
      <point x="122" y="1312"/>
      <point x="193" y="1521"/>
      <point x="405" y="1518" type="curve" smooth="yes"/>
      <point x="490" y="1517"/>
      <point x="555" y="1477"/>
      <point x="583" y="1390" type="curve"/>
      <point x="583" y="1500" type="line"/>
      <point x="788" y="1500" type="line"/>
      <point x="788" y="140" type="line" smooth="yes"/>
      <point x="788" y="-32"/>
      <point x="720" y="-220"/>
      <point x="446" y="-229" type="curve" smooth="yes"/>
      <point x="309" y="-233"/>
      <point x="198" y="-196"/>
      <point x="119" y="-133" type="curve"/>
      <point x="193" y="7" type="line"/>
      <point x="252" y="-33"/>
      <point x="331" y="-70"/>
      <point x="436" y="-67" type="curve" smooth="yes"/>
      <point x="529" y="-65"/>
      <point x="583" y="7"/>
      <point x="583" y="121" type="curve" smooth="yes"/>
      <point x="583" y="264" type="line"/>
      <point x="544" y="165"/>
      <point x="474" y="140"/>
      <point x="387" y="140" type="curve" smooth="yes"/>
      <point x="176" y="140"/>
      <point x="122" y="340"/>
      <point x="122" y="608" type="curve" smooth="yes"/>
    </contour>
  </outline>
</glyph>
<glyph name="h" format="1">
  <advance width="969"/>
  <unicode hex="0068"/>
  <outline>
    <contour>
      <point x="145" y="1779" type="line"/>
      <point x="350" y="1779" type="line"/>
      <point x="350" y="1341" type="line"/>
      <point x="376" y="1434"/>
      <point x="469" y="1519"/>
      <point x="589" y="1519" type="curve" smooth="yes"/>
      <point x="739" y="1519"/>
      <point x="830" y="1413"/>
      <point x="830" y="1196" type="curve" smooth="yes"/>
      <point x="830" y="0" type="line"/>
      <point x="625" y="0" type="line"/>
      <point x="625" y="1179" type="line" smooth="yes"/>
      <point x="625" y="1301"/>
      <point x="576" y="1342"/>
      <point x="502" y="1342" type="curve" smooth="yes"/>
      <point x="419" y="1342"/>
      <point x="350" y="1285"/>
      <point x="350" y="1154" type="curve" smooth="yes"/>
      <point x="350" y="0" type="line"/>
      <point x="145" y="0" type="line"/>
    </contour>
  </outline>
</glyph>
<glyph name="i" format="1">
  <advance width="503"/>
  <unicode hex="0069"/>
  <outline>
    <contour>
      <point x="150" y="1500" type="line"/>
      <point x="150" y="0" type="line"/>
      <point x="355" y="0" type="line"/>
      <point x="355" y="1500" type="line"/>
    </contour>
    <contour>
      <point x="150" y="1800" type="line"/>
      <point x="150" y="1611" type="line"/>
      <point x="355" y="1611" type="line"/>
      <point x="355" y="1800" type="line"/>
    </contour>
  </outline>
</glyph>
<glyph name="j" format="1">
  <advance width="533"/>
  <unicode hex="006A"/>
  <outline>
    <contour>
      <point x="182" y="1500" type="line"/>
      <point x="182" y="10" type="line" smooth="yes"/>
      <point x="182" y="-27"/>
      <point x="171" y="-53"/>
      <point x="132" y="-57" type="curve" smooth="yes"/>
      <point x="109" y="-59"/>
      <point x="76" y="-56"/>
      <point x="74" y="-56" type="curve"/>
      <point x="74" y="-200" type="line"/>
      <point x="79" y="-203"/>
      <point x="148" y="-215"/>
      <point x="221" y="-209" type="curve" smooth="yes"/>
      <point x="300" y="-205"/>
      <point x="387" y="-151"/>
      <point x="387" y="20" type="curve" smooth="yes"/>
      <point x="387" y="1500" type="line"/>
    </contour>
    <contour>
      <point x="180" y="1826" type="line"/>
      <point x="180" y="1618" type="line"/>
      <point x="386" y="1618" type="line"/>
      <point x="386" y="1826" type="line"/>
    </contour>
  </outline>
</glyph>
<glyph name="k" format="1">
  <advance width="866"/>
  <unicode hex="006B"/>
  <outline>
    <contour>
      <point x="647" y="1500" type="line"/>
      <point x="340" y="758" type="line"/>
      <point x="660" y="0" type="line"/>
      <point x="871" y="0" type="line"/>
      <point x="538" y="759" type="line"/>
      <point x="854" y="1500" type="line"/>
    </contour>
    <contour>
      <point x="147" y="1779" type="line"/>
      <point x="147" y="0" type="line"/>
      <point x="352" y="0" type="line"/>
      <point x="352" y="1779" type="line"/>
    </contour>
    <contour>
      <point x="433" y="0" type="move" name="bottom"/>
    </contour>
  </outline>
</glyph>
<glyph name="l" format="1">
  <advance width="501"/>
  <unicode hex="006C"/>
  <outline>
    <contour>
      <point x="148" y="1779" type="line"/>
      <point x="148" y="0" type="line"/>
      <point x="353" y="0" type="line"/>
      <point x="353" y="1779" type="line"/>
    </contour>
    <contour>
      <point x="250" y="1760" type="move" name="top"/>
    </contour>
    <contour>
      <point x="250" y="0" type="move" name="bottom"/>
    </contour>
    <contour>
      <point x="486" y="1500" type="move" name="topright"/>
    </contour>
  </outline>
</glyph>
<glyph name="m" format="1">
  <advance width="1432"/>
  <unicode hex="006D"/>
  <outline>
    <contour>
      <point x="352" y="1344" type="line"/>
      <point x="379" y="1439"/>
      <point x="462" y="1519"/>
      <point x="586" y="1519" type="curve" smooth="yes"/>
      <point x="684" y="1519"/>
      <point x="760" y="1473"/>
      <point x="798" y="1367" type="curve"/>
      <point x="847" y="1458"/>
      <point x="936" y="1519"/>
      <point x="1052" y="1519" type="curve" smooth="yes"/>
      <point x="1211" y="1519"/>
      <point x="1295" y="1405"/>
      <point x="1295" y="1184" type="curve" smooth="yes"/>
      <point x="1295" y="0" type="line"/>
      <point x="1090" y="0" type="line"/>
      <point x="1090" y="1190" type="line" smooth="yes"/>
      <point x="1090" y="1303"/>
      <point x="1042" y="1342"/>
      <point x="970" y="1342" type="curve" smooth="yes"/>
      <point x="893" y="1342"/>
      <point x="832" y="1311"/>
      <point x="824" y="1203" type="curve" smooth="yes"/>
      <point x="824" y="1184" type="line" smooth="yes"/>
      <point x="824" y="0" type="line"/>
      <point x="618" y="0" type="line"/>
      <point x="618" y="1191" type="line" smooth="yes"/>
      <point x="618" y="1297"/>
      <point x="575" y="1342"/>
      <point x="500" y="1342" type="curve" smooth="yes"/>
      <point x="402" y="1342"/>
      <point x="352" y="1274"/>
      <point x="352" y="1168" type="curve" smooth="yes"/>
      <point x="352" y="0" type="line"/>
      <point x="147" y="0" type="line"/>
      <point x="147" y="1500" type="line"/>
      <point x="352" y="1500" type="line"/>
    </contour>
  </outline>
</glyph>
<glyph name="n" format="1">
  <advance width="968"/>
  <unicode hex="006E"/>
  <outline>
    <contour>
      <point x="348" y="1341" type="line"/>
      <point x="374" y="1434"/>
      <point x="469" y="1519"/>
      <point x="590" y="1519" type="curve" smooth="yes"/>
      <point x="740" y="1519"/>
      <point x="829" y="1413"/>
      <point x="829" y="1196" type="curve" smooth="yes"/>
      <point x="829" y="0" type="line"/>
      <point x="624" y="0" type="line"/>
      <point x="624" y="1195" type="line" smooth="yes"/>
      <point x="624" y="1301"/>
      <point x="570" y="1347"/>
      <point x="496" y="1347" type="curve" smooth="yes"/>
      <point x="413" y="1347"/>
      <point x="348" y="1295"/>
      <point x="348" y="1175" type="curve" smooth="yes"/>
      <point x="348" y="0" type="line"/>
      <point x="143" y="0" type="line"/>
      <point x="143" y="1500" type="line"/>
      <point x="348" y="1500" type="line"/>
    </contour>
  </outline>
</glyph>
<glyph name="p" format="1">
  <advance width="939"/>
  <unicode hex="0070"/>
  <outline>
    <contour>
      <point x="352" y="1375" type="line"/>
      <point x="392" y="1473"/>
      <point x="479" y="1513"/>
      <point x="560" y="1513" type="curve" smooth="yes"/>
      <point x="776" y="1513"/>
      <point x="815" y="1305"/>
      <point x="815" y="1030" type="curve" smooth="yes"/>
      <point x="815" y="487" type="line" smooth="yes"/>
      <point x="815" y="203"/>
      <point x="770" y="-18"/>
      <point x="527" y="-18" type="curve" smooth="yes"/>
      <point x="450" y="-18"/>
      <point x="384" y="37"/>
      <point x="352" y="100" type="curve"/>
      <point x="352" y="-274" type="line"/>
      <point x="147" y="-274" type="line"/>
      <point x="147" y="1500" type="line"/>
      <point x="352" y="1500" type="line"/>
    </contour>
    <contour>
      <point x="609" y="1066" type="line" smooth="yes"/>
      <point x="609" y="1231"/>
      <point x="598" y="1346"/>
      <point x="491" y="1346" type="curve" smooth="yes"/>
      <point x="405" y="1346"/>
      <point x="352" y="1306"/>
      <point x="352" y="1066" type="curve" smooth="yes"/>
      <point x="352" y="451" type="line" smooth="yes"/>
      <point x="352" y="252"/>
      <point x="375" y="154"/>
      <point x="487" y="154" type="curve"/>
      <point x="586" y="155"/>
      <point x="609" y="250"/>
      <point x="609" y="459" type="curve" smooth="yes"/>
    </contour>
  </outline>
</glyph>
<glyph name="q" format="1">
  <advance width="937"/>
  <unicode hex="0071"/>
  <outline>
    <contour>
      <point x="124" y="1030" type="line" smooth="yes"/>
      <point x="124" y="1304"/>
      <point x="168" y="1513"/>
      <point x="380" y="1513" type="curve" smooth="yes"/>
      <point x="461" y="1513"/>
      <point x="544" y="1478"/>
      <point x="585" y="1383" type="curve"/>
      <point x="585" y="1500" type="line"/>
      <point x="790" y="1500" type="line"/>
      <point x="790" y="-274" type="line"/>
      <point x="585" y="-274" type="line"/>
      <point x="585" y="104" type="line"/>
      <point x="557" y="38"/>
      <point x="489" y="-18"/>
      <point x="412" y="-18" type="curve" smooth="yes"/>
      <point x="175" y="-18"/>
      <point x="124" y="196"/>
      <point x="124" y="480" type="curve" smooth="yes"/>
    </contour>
    <contour>
      <point x="584" y="1050" type="line" smooth="yes"/>
      <point x="584" y="1252"/>
      <point x="558" y="1346"/>
      <point x="450" y="1346" type="curve"/>
      <point x="349" y="1345"/>
      <point x="329" y="1251"/>
      <point x="329" y="1044" type="curve" smooth="yes"/>
      <point x="329" y="437" type="line" smooth="yes"/>
      <point x="329" y="269"/>
      <point x="338" y="154"/>
      <point x="445" y="154" type="curve" smooth="yes"/>
      <point x="535" y="154"/>
      <point x="584" y="198"/>
      <point x="584" y="435" type="curve" smooth="yes"/>
    </contour>
  </outline>
</glyph>
<glyph name="r" format="1">
  <advance width="651"/>
  <unicode hex="0072"/>
  <outline>
    <contour>
      <point x="353" y="1333" type="line"/>
      <point x="387" y="1449"/>
      <point x="475" y="1518"/>
      <point x="608" y="1518" type="curve" smooth="yes"/>
      <point x="613" y="1518"/>
      <point x="611" y="1344"/>
      <point x="611" y="1344" type="curve"/>
      <point x="515" y="1344"/>
      <point x="412" y="1313"/>
      <point x="353" y="1219" type="curve"/>
      <point x="353" y="0" type="line"/>
      <point x="147" y="0" type="line"/>
      <point x="147" y="1500" type="line"/>
      <point x="353" y="1500" type="line"/>
    </contour>
  </outline>
</glyph>
<glyph name="s" format="1">
  <advance width="805"/>
  <unicode hex="0073"/>
  <outline>
    <contour>
      <point x="88" y="1165" type="curve" smooth="yes"/>
      <point x="88" y="1407"/>
      <point x="209" y="1518"/>
      <point x="411" y="1518" type="curve" smooth="yes"/>
      <point x="613" y="1518"/>
      <point x="720" y="1401"/>
      <point x="720" y="1050" type="curve" smooth="yes"/>
      <point x="720" y="978" type="line"/>
      <point x="525" y="978" type="line"/>
      <point x="525" y="1082" type="line" smooth="yes"/>
      <point x="525" y="1250"/>
      <point x="497" y="1342"/>
      <point x="413" y="1342" type="curve" smooth="yes"/>
      <point x="331" y="1342"/>
      <point x="292" y="1302"/>
      <point x="288" y="1177" type="curve"/>
      <point x="286" y="1081"/>
      <point x="329" y="984"/>
      <point x="425" y="889" type="curve"/>
      <point x="533" y="788" type="line"/>
      <point x="671" y="656"/>
      <point x="745" y="509"/>
      <point x="745" y="344" type="curve" smooth="yes"/>
      <point x="745" y="117"/>
      <point x="645" y="-20"/>
      <point x="426" y="-20" type="curve" smooth="yes"/>
      <point x="213" y="-20"/>
      <point x="100" y="103"/>
      <point x="100" y="414" type="curve" smooth="yes"/>
      <point x="100" y="527" type="line"/>
      <point x="299" y="527" type="line"/>
      <point x="299" y="415" type="line" smooth="yes"/>
      <point x="299" y="247"/>
      <point x="333" y="155"/>
      <point x="417" y="155" type="curve" smooth="yes"/>
      <point x="501" y="155"/>
      <point x="539" y="202"/>
      <point x="539" y="343" type="curve" smooth="yes"/>
      <point x="539" y="449"/>
      <point x="491" y="553"/>
      <point x="389" y="653" type="curve" smooth="yes"/>
      <point x="375" y="668"/>
      <point x="316" y="722"/>
      <point x="283" y="754" type="curve" smooth="yes"/>
      <point x="156" y="875"/>
      <point x="88" y="1012"/>
    </contour>
  </outline>
</glyph>
<glyph name="t" format="1">
  <advance width="612"/>
  <unicode hex="0074"/>
  <outline>
    <contour>
      <point x="183" y="1760" type="line"/>
      <point x="388" y="1760" type="line"/>
      <point x="388" y="1488" type="line"/>
      <point x="550" y="1488" type="line"/>
      <point x="550" y="1336" type="line"/>
      <point x="388" y="1336" type="line"/>
      <point x="388" y="241" type="line" smooth="yes"/>
      <point x="388" y="165"/>
      <point x="404" y="154"/>
      <point x="552" y="154" type="curve"/>
      <point x="552" y="-9" type="line"/>
      <point x="411" y="-9" type="line" smooth="yes"/>
      <point x="218" y="-9"/>
      <point x="183" y="54"/>
      <point x="183" y="223" type="curve" smooth="yes"/>
      <point x="183" y="1336" type="line"/>
      <point x="46" y="1336" type="line"/>
      <point x="46" y="1488" type="line"/>
      <point x="183" y="1488" type="line"/>
    </contour>
  </outline>
</glyph>
<glyph name="u" format="1">
  <advance width="968"/>
  <unicode hex="0075"/>
  <outline>
    <contour>
      <point x="616" y="1500" type="line"/>
      <point x="822" y="1500" type="line"/>
      <point x="822" y="0" type="line"/>
      <point x="616" y="0" type="line"/>
      <point x="616" y="153" type="line"/>
      <point x="586" y="59"/>
      <point x="510" y="-20"/>
      <point x="388" y="-20" type="curve" smooth="yes"/>
      <point x="254" y="-20"/>
      <point x="137" y="73"/>
      <point x="137" y="312" type="curve" smooth="yes"/>
      <point x="137" y="1500" type="line"/>
      <point x="342" y="1500" type="line"/>
      <point x="342" y="335" type="line" smooth="yes"/>
      <point x="342" y="219"/>
      <point x="382" y="158"/>
      <point x="471" y="158" type="curve" smooth="yes"/>
      <point x="570" y="158"/>
      <point x="616" y="235"/>
      <point x="616" y="340" type="curve" smooth="yes"/>
    </contour>
  </outline>
</glyph>
<glyph name="v" format="1">
  <advance width="753"/>
  <unicode hex="0076"/>
  <outline>
    <contour>
      <point x="521" y="1500" type="line"/>
      <point x="424" y="656" type="line"/>
      <point x="395" y="320" type="line"/>
      <point x="376" y="320" type="line"/>
      <point x="341" y="655" type="line"/>
      <point x="233" y="1500" type="line"/>
      <point x="42" y="1500" type="line"/>
      <point x="255" y="0" type="line"/>
      <point x="496" y="0" type="line"/>
      <point x="711" y="1500" type="line"/>
    </contour>
  </outline>
</glyph>
<glyph name="w" format="1">
  <advance width="1160"/>
  <unicode hex="0077"/>
  <outline>
    <contour>
      <point x="940" y="1500" type="line"/>
      <point x="1108" y="1500" type="line"/>
      <point x="927" y="0" type="line"/>
      <point x="738" y="0" type="line"/>
      <point x="587" y="1174" type="line"/>
      <point x="407" y="0" type="line"/>
      <point x="226" y="0" type="line"/>
      <point x="51" y="1500" type="line"/>
      <point x="223" y="1500" type="line"/>
      <point x="302" y="665" type="line"/>
      <point x="325" y="378" type="line"/>
      <point x="334" y="378" type="line"/>
      <point x="372" y="666" type="line"/>
      <point x="491" y="1500" type="line"/>
      <point x="545" y="1500" type="line"/>
      <point x="637" y="1500" type="line"/>
      <point x="670" y="1500" type="line"/>
      <point x="789" y="688" type="line"/>
      <point x="830" y="378" type="line"/>
      <point x="838" y="378" type="line"/>
      <point x="862" y="689" type="line"/>
    </contour>
  </outline>
</glyph>
<glyph name="x" format="1">
  <advance width="743"/>
  <unicode hex="0078"/>
  <outline>
    <contour>
      <point x="43" y="1500" type="line"/>
      <point x="224" y="1500" type="line"/>
      <point x="382" y="1021" type="line"/>
      <point x="522" y="1500" type="line"/>
      <point x="708" y="1500" type="line"/>
      <point x="466" y="766" type="line"/>
      <point x="718" y="0" type="line"/>
      <point x="527" y="0" type="line"/>
      <point x="363" y="510" type="line"/>
      <point x="212" y="0" type="line"/>
      <point x="26" y="0" type="line"/>
      <point x="278" y="773" type="line"/>
    </contour>
  </outline>
</glyph>
<glyph name="y" format="1">
  <advance width="791"/>
  <unicode hex="0079"/>
  <outline>
    <contour>
      <point x="558" y="1500" type="line"/>
      <point x="756" y="1500" type="line"/>
      <point x="507" y="-29" type="line"/>
      <point x="482" y="-192"/>
      <point x="457" y="-251"/>
      <point x="310" y="-251" type="curve" smooth="yes"/>
      <point x="109" y="-251" type="line"/>
      <point x="109" y="-96" type="line"/>
      <point x="180" y="-96" type="line" smooth="yes"/>
      <point x="238" y="-96"/>
      <point x="287" y="-92"/>
      <point x="296" y="-72" type="curve"/>
      <point x="312" y="-51"/>
      <point x="305" y="0"/>
      <point x="297" y="53" type="curve" smooth="yes"/>
      <point x="52" y="1500" type="line"/>
      <point x="251" y="1500" type="line"/>
      <point x="359" y="720" type="line"/>
      <point x="403" y="314" type="line"/>
      <point x="421" y="314" type="line"/>
      <point x="460" y="720" type="line"/>
    </contour>
  </outline>
</glyph>
<glyph name="z" format="1">
  <advance width="680"/>
  <unicode hex="007A"/>
  <outline>
    <contour>
      <point x="101" y="1500" type="line"/>
      <point x="101" y="1323" type="line"/>
      <point x="406" y="1323" type="line"/>
      <point x="76" y="153" type="line"/>
      <point x="76" y="0" type="line"/>
      <point x="601" y="0" type="line"/>
      <point x="601" y="175" type="line"/>
      <point x="287" y="175" type="line"/>
      <point x="618" y="1359" type="line"/>
      <point x="618" y="1500" type="line"/>
    </contour>
    <contour>
      <point x="387" y="1500" type="move" name="top"/>
    </contour>
  </outline>
</glyph>
<glyph name="braceleft" format="1">
  <advance width="798"/>
  <unicode hex="007B"/>
  <outline>
    <contour>
      <point x="587" y="1781" type="curve" smooth="yes"/>
      <point x="647" y="1781" type="line"/>
      <point x="647" y="1614" type="line"/>
      <point x="525" y="1614"/>
      <point x="508" y="1589"/>
      <point x="508" y="1430" type="curve" smooth="yes"/>
      <point x="508" y="1184" type="line" smooth="yes"/>
      <point x="508" y="921"/>
      <point x="486" y="873"/>
      <point x="342" y="830" type="curve"/>
      <point x="486" y="787"/>
      <point x="508" y="739"/>
      <point x="508" y="476" type="curve" smooth="yes"/>
      <point x="508" y="230" type="line" smooth="yes"/>
      <point x="508" y="71"/>
      <point x="525" y="46"/>
      <point x="647" y="46" type="curve"/>
      <point x="647" y="-121" type="line"/>
      <point x="587" y="-121" type="line" smooth="yes"/>
      <point x="375" y="-121"/>
      <point x="304" y="-44"/>
      <point x="304" y="217" type="curve" smooth="yes"/>
      <point x="304" y="492" type="line" smooth="yes"/>
      <point x="304" y="684"/>
      <point x="291" y="720"/>
      <point x="165" y="720" type="curve"/>
      <point x="165" y="940" type="line"/>
      <point x="291" y="940"/>
      <point x="304" y="976"/>
      <point x="304" y="1168" type="curve" smooth="yes"/>
      <point x="304" y="1443" type="line" smooth="yes"/>
      <point x="304" y="1704"/>
      <point x="375" y="1781"/>
    </contour>
  </outline>
</glyph>
<glyph name="braceright" format="1">
  <advance width="657"/>
  <unicode hex="007D"/>
  <outline>
    <contour>
      <point x="136" y="1782" type="line" smooth="yes"/>
      <point x="348" y="1782"/>
      <point x="419" y="1705"/>
      <point x="419" y="1444" type="curve" smooth="yes"/>
      <point x="419" y="1109" type="line" smooth="yes"/>
      <point x="419" y="917"/>
      <point x="432" y="881"/>
      <point x="558" y="881" type="curve"/>
      <point x="558" y="681" type="line"/>
      <point x="432" y="681"/>
      <point x="419" y="645"/>
      <point x="419" y="453" type="curve" smooth="yes"/>
      <point x="419" y="118" type="line" smooth="yes"/>
      <point x="419" y="-143"/>
      <point x="348" y="-220"/>
      <point x="136" y="-220" type="curve" smooth="yes"/>
      <point x="76" y="-220" type="line"/>
      <point x="76" y="-53" type="line"/>
      <point x="198" y="-53"/>
      <point x="215" y="-28"/>
      <point x="215" y="131" type="curve" smooth="yes"/>
      <point x="215" y="427" type="line" smooth="yes"/>
      <point x="215" y="690"/>
      <point x="237" y="738"/>
      <point x="381" y="781" type="curve"/>
      <point x="237" y="824"/>
      <point x="215" y="872"/>
      <point x="215" y="1135" type="curve" smooth="yes"/>
      <point x="215" y="1431" type="line" smooth="yes"/>
      <point x="215" y="1590"/>
      <point x="198" y="1615"/>
      <point x="76" y="1615" type="curve"/>
      <point x="76" y="1782" type="line"/>
    </contour>
  </outline>
</glyph>
<glyph name="asciitilde" format="1">
  <advance width="1117"/>
  <unicode hex="007E"/>
  <outline>
    <contour>
      <point x="806" y="1085"/>
      <point x="769" y="1050"/>
      <point x="735" y="1046" type="curve" smooth="yes"/>
      <point x="671" y="1046"/>
      <point x="445" y="1134"/>
      <point x="341" y="1134" type="curve" smooth="yes"/>
      <point x="239" y="1134"/>
      <point x="162" y="1055"/>
      <point x="111" y="909" type="curve"/>
      <point x="260" y="831" type="line"/>
      <point x="287" y="893"/>
      <point x="315" y="924"/>
      <point x="355" y="924" type="curve" smooth="yes"/>
      <point x="461" y="924"/>
      <point x="650" y="832"/>
      <point x="764" y="832" type="curve" smooth="yes"/>
      <point x="873" y="832"/>
      <point x="959" y="983"/>
      <point x="993" y="1119" type="curve"/>
      <point x="829" y="1161" type="line"/>
    </contour>
  </outline>
</glyph>
<glyph name="cent" format="1">
  <advance width="788"/>
  <unicode hex="00A2"/>
  <outline>
    <contour>
      <point x="374" y="1767" type="line"/>
      <point x="374" y="1512" type="line"/>
      <point x="487" y="1510" type="line"/>
      <point x="487" y="1767" type="line"/>
    </contour>
    <contour>
      <point x="374" y="5" type="line"/>
      <point x="374" y="-250" type="line"/>
      <point x="487" y="-250" type="line"/>
      <point x="487" y="5" type="line"/>
    </contour>
    <component base="c"/>
  </outline>
</glyph>
<glyph name="sterling" format="1">
  <advance width="892"/>
  <unicode hex="00A3"/>
  <outline>
    <contour>
      <point x="173" y="1383" type="curve" smooth="yes"/>
      <point x="173" y="1665"/>
      <point x="304" y="1781"/>
      <point x="520" y="1781" type="curve" smooth="yes"/>
      <point x="739" y="1781"/>
      <point x="841" y="1652"/>
      <point x="841" y="1381" type="curve" smooth="yes"/>
      <point x="841" y="1246" type="line"/>
      <point x="655" y="1246" type="line"/>
      <point x="655" y="1393" type="line" smooth="yes"/>
      <point x="655" y="1526"/>
      <point x="635" y="1625"/>
      <point x="520" y="1625" type="curve" smooth="yes"/>
      <point x="436" y="1625"/>
      <point x="363" y="1573"/>
      <point x="363" y="1386" type="curve" smooth="yes"/>
      <point x="363" y="1286"/>
      <point x="384" y="1146"/>
      <point x="437" y="954" type="curve"/>
      <point x="787" y="954" type="line"/>
      <point x="787" y="809" type="line"/>
      <point x="476" y="809" type="line"/>
      <point x="485" y="751"/>
      <point x="491" y="688"/>
      <point x="491" y="634" type="curve" smooth="yes"/>
      <point x="491" y="402"/>
      <point x="435" y="232"/>
      <point x="297" y="164" type="curve"/>
      <point x="842" y="164" type="line"/>
      <point x="842" y="0" type="line"/>
      <point x="65" y="0" type="line"/>
      <point x="65" y="143" type="line"/>
      <point x="229" y="215"/>
      <point x="292" y="354"/>
      <point x="292" y="632" type="curve" smooth="yes"/>
      <point x="292" y="689"/>
      <point x="286" y="753"/>
      <point x="275" y="809" type="curve"/>
      <point x="38" y="809" type="line"/>
      <point x="38" y="954" type="line"/>
      <point x="241" y="954" type="line"/>
      <point x="194" y="1127"/>
      <point x="173" y="1269"/>
    </contour>
  </outline>
</glyph>
<glyph name="yen" format="1">
  <advance width="843"/>
  <unicode hex="00A5"/>
  <outline>
    <component base="Y"/>
    <contour>
      <point x="85" y="798" type="line"/>
      <point x="763" y="798" type="line"/>
      <point x="763" y="682" type="line"/>
      <point x="506" y="682" type="line"/>
      <point x="506" y="507" type="line"/>
      <point x="763" y="507" type="line"/>
      <point x="763" y="391" type="line"/>
      <point x="85" y="391" type="line"/>
      <point x="85" y="507" type="line"/>
      <point x="377" y="507" type="line"/>
      <point x="377" y="682" type="line"/>
      <point x="85" y="682" type="line"/>
    </contour>
  </outline>
</glyph>
<glyph name="brokenbar" format="1">
  <advance width="530"/>
  <unicode hex="00A6"/>
  <outline>
    <contour>
      <point x="122" y="1727" type="line"/>
      <point x="122" y="897" type="line"/>
      <point x="319" y="897" type="line"/>
      <point x="319" y="1727" type="line"/>
    </contour>
    <contour>
      <point x="122" y="690" type="line"/>
      <point x="122" y="-118" type="line"/>
      <point x="319" y="-118" type="line"/>
      <point x="319" y="690" type="line"/>
    </contour>
  </outline>
</glyph>
<glyph name="section" format="1">
  <advance width="805"/>
  <unicode hex="00A7"/>
  <outline>
    <contour>
      <point x="217" y="1782"/>
      <point x="88" y="1664"/>
      <point x="88" y="1487" type="curve" smooth="yes"/>
      <point x="88" y="1381"/>
      <point x="150" y="1255"/>
      <point x="242" y="1172" type="curve"/>
      <point x="141" y="1129"/>
      <point x="87" y="1050"/>
      <point x="87" y="953" type="curve" smooth="yes"/>
      <point x="87" y="636"/>
      <point x="559" y="623"/>
      <point x="559" y="281" type="curve" smooth="yes"/>
      <point x="559" y="187"/>
      <point x="519" y="125"/>
      <point x="437" y="125" type="curve" smooth="yes"/>
      <point x="317" y="125"/>
      <point x="299" y="212"/>
      <point x="299" y="342" type="curve" smooth="yes"/>
      <point x="299" y="434" type="line"/>
      <point x="100" y="434" type="line"/>
      <point x="100" y="340" type="line" smooth="yes"/>
      <point x="100" y="100"/>
      <point x="230" y="-20"/>
      <point x="426" y="-20" type="curve" smooth="yes"/>
      <point x="617" y="-20"/>
      <point x="745" y="100"/>
      <point x="745" y="281" type="curve" smooth="yes"/>
      <point x="745" y="367"/>
      <point x="717" y="485"/>
      <point x="586" y="596" type="curve"/>
      <point x="657" y="640"/>
      <point x="745" y="692"/>
      <point x="745" y="800" type="curve" smooth="yes"/>
      <point x="745" y="915"/>
      <point x="672" y="1055"/>
      <point x="425" y="1249" type="curve" smooth="yes"/>
      <point x="342" y="1317"/>
      <point x="268" y="1414"/>
      <point x="268" y="1493" type="curve" smooth="yes"/>
      <point x="268" y="1571"/>
      <point x="310" y="1637"/>
      <point x="391" y="1637" type="curve" smooth="yes"/>
      <point x="453" y="1637"/>
      <point x="525" y="1586"/>
      <point x="525" y="1418" type="curve" smooth="yes"/>
      <point x="525" y="1332" type="line"/>
      <point x="719" y="1332" type="line"/>
      <point x="719" y="1393" type="line" smooth="yes"/>
      <point x="719" y="1626"/>
      <point x="596" y="1782"/>
      <point x="411" y="1782" type="curve" smooth="yes"/>
    </contour>
    <contour>
      <point x="339" y="1074" type="line"/>
      <point x="523" y="943"/>
      <point x="588" y="867"/>
      <point x="588" y="794" type="curve" smooth="yes"/>
      <point x="588" y="742"/>
      <point x="557" y="702"/>
      <point x="514" y="673" type="curve"/>
      <point x="325" y="821"/>
      <point x="257" y="881"/>
      <point x="257" y="948" type="curve" smooth="yes"/>
      <point x="257" y="998"/>
      <point x="286" y="1045"/>
      <point x="338" y="1075" type="curve"/>
    </contour>
  </outline>
</glyph>
<glyph name="dieresis" format="1">
  <advance width="976"/>
  <unicode hex="00A8"/>
  <outline>
    <contour>
      <point x="615" y="596" type="line"/>
      <point x="615" y="418" type="line"/>
      <point x="845" y="418" type="line"/>
      <point x="845" y="596" type="line"/>
    </contour>
    <contour>
      <point x="131" y="596" type="line"/>
      <point x="131" y="418" type="line"/>
      <point x="361" y="418" type="line"/>
      <point x="361" y="596" type="line"/>
    </contour>
    <contour>
      <point x="488" y="300" type="move" name="_top"/>
    </contour>
  </outline>
</glyph>
<glyph name="copyright" format="1">
  <advance width="1466"/>
  <unicode hex="00A9"/>
  <outline>
    <contour>
      <point x="741" y="1390" type="curve" smooth="yes"/>
      <point x="397.275" y="1390"/>
      <point x="224.943" y="1125.52"/>
      <point x="224.943" y="861.282" type="curve" smooth="yes"/>
      <point x="224.943" y="597.521"/>
      <point x="396.651" y="334"/>
      <point x="741" y="334" type="curve" smooth="yes"/>
      <point x="1084.72" y="334"/>
      <point x="1257.06" y="598.479"/>
      <point x="1257.06" y="862.718" type="curve" smooth="yes"/>
      <point x="1257.06" y="1126.48"/>
      <point x="1085.35" y="1390"/>
    </contour>
    <contour>
      <point x="84" y="862" type="curve" smooth="yes"/>
      <point x="84" y="1235"/>
      <point x="368" y="1519"/>
      <point x="741" y="1519" type="curve" smooth="yes"/>
      <point x="1114" y="1519"/>
      <point x="1398" y="1235"/>
      <point x="1398" y="862" type="curve" smooth="yes"/>
      <point x="1398" y="489"/>
      <point x="1114" y="205"/>
      <point x="741" y="205" type="curve" smooth="yes"/>
      <point x="368" y="205"/>
      <point x="84" y="489"/>
    </contour>
    <contour>
      <point x="527" y="1089" type="line" smooth="yes"/>
      <point x="527" y="1217"/>
      <point x="571" y="1305"/>
      <point x="736" y="1305" type="curve" smooth="yes"/>
      <point x="870" y="1305"/>
      <point x="940" y="1259"/>
      <point x="940" y="1095" type="curve" smooth="yes"/>
      <point x="940" y="977" type="line"/>
      <point x="815" y="977" type="line"/>
      <point x="815" y="1084" type="line" smooth="yes"/>
      <point x="815" y="1182.32"/>
      <point x="779.882" y="1188.66"/>
      <point x="737.574" y="1188.66" type="curve" smooth="yes"/>
      <point x="694.884" y="1188.66"/>
      <point x="652" y="1181.49"/>
      <point x="652" y="1097" type="curve" smooth="yes"/>
      <point x="652" y="616" type="line" smooth="yes"/>
      <point x="652" y="547.184"/>
      <point x="695.42" y="535.614"/>
      <point x="738.372" y="535.614" type="curve" smooth="yes"/>
      <point x="780.41" y="535.614"/>
      <point x="815" y="545.685"/>
      <point x="815" y="616" type="curve" smooth="yes"/>
      <point x="815" y="765" type="line"/>
      <point x="944" y="765" type="line"/>
      <point x="944" y="623" type="line" smooth="yes"/>
      <point x="944" y="497"/>
      <point x="894" y="424"/>
      <point x="732" y="424" type="curve" smooth="yes"/>
      <point x="593" y="424"/>
      <point x="527" y="507"/>
      <point x="527" y="628" type="curve" smooth="yes"/>
    </contour>
  </outline>
</glyph>
<glyph name="ordfeminine" format="1">
  <advance width="927"/>
  <unicode hex="00AA"/>
  <outline>
    <contour>
      <point x="251" y="1608"/>
      <point x="216" y="1450"/>
      <point x="216" y="1246" type="curve" smooth="yes"/>
      <point x="216" y="1211" type="line"/>
      <point x="379" y="1211" type="line"/>
      <point x="379" y="1255" type="line" smooth="yes"/>
      <point x="379" y="1409"/>
      <point x="392" y="1471"/>
      <point x="477" y="1471" type="curve" smooth="yes"/>
      <point x="570" y="1471"/>
      <point x="569" y="1386"/>
      <point x="569" y="1231" type="curve" smooth="yes"/>
      <point x="569" y="1163" type="line"/>
      <point x="354" y="1076"/>
      <point x="201" y="1030"/>
      <point x="201" y="818" type="curve" smooth="yes"/>
      <point x="201" y="700" type="line" smooth="yes"/>
      <point x="202" y="501"/>
      <point x="261" y="382"/>
      <point x="406" y="382" type="curve" smooth="yes"/>
      <point x="500" y="382"/>
      <point x="558" y="451"/>
      <point x="570" y="493" type="curve"/>
      <point x="570" y="393" type="line"/>
      <point x="734" y="393" type="line"/>
      <point x="734" y="1210" type="line" smooth="yes"/>
      <point x="734" y="1467"/>
      <point x="697" y="1608"/>
      <point x="480" y="1608" type="curve" smooth="yes"/>
    </contour>
    <contour>
      <point x="569" y="598" type="line"/>
      <point x="555" y="562"/>
      <point x="511" y="515"/>
      <point x="453" y="515" type="curve" smooth="yes"/>
      <point x="385" y="515"/>
      <point x="366" y="569"/>
      <point x="366" y="706" type="curve" smooth="yes"/>
      <point x="366" y="814" type="line" smooth="yes"/>
      <point x="366" y="952"/>
      <point x="403" y="977"/>
      <point x="569" y="1051" type="curve"/>
    </contour>
  </outline>
</glyph>
<glyph name="logicalnot" format="1">
  <advance width="947"/>
  <unicode hex="00AC"/>
  <outline>
    <contour>
      <point x="97" y="979" type="line"/>
      <point x="793" y="979" type="line"/>
      <point x="793" y="439" type="line"/>
      <point x="602" y="439" type="line"/>
      <point x="602" y="796" type="line"/>
      <point x="97" y="796" type="line"/>
    </contour>
  </outline>
</glyph>
<glyph name="uni00AD" format="1">
  <advance width="696"/>
  <unicode hex="00AD"/>
  <outline>
    <contour>
      <point x="90" y="741" type="line"/>
      <point x="606" y="741" type="line"/>
      <point x="606" y="573" type="line"/>
      <point x="90" y="573" type="line"/>
    </contour>
  </outline>
</glyph>
<glyph name="registered" format="1">
  <advance width="1502"/>
  <unicode hex="00AE"/>
  <outline>
    <contour>
      <point x="378" y="1519"/>
      <point x="94" y="1235"/>
      <point x="94" y="862" type="curve" smooth="yes"/>
      <point x="94" y="489"/>
      <point x="378" y="205"/>
      <point x="751" y="205" type="curve" smooth="yes"/>
      <point x="1124" y="205"/>
      <point x="1408" y="489"/>
      <point x="1408" y="862" type="curve" smooth="yes"/>
      <point x="1408" y="1235"/>
      <point x="1124" y="1519"/>
      <point x="751" y="1519" type="curve" smooth="yes"/>
    </contour>
    <contour>
      <point x="1040" y="1390"/>
      <point x="1249" y="1153"/>
      <point x="1249" y="862" type="curve" smooth="yes"/>
      <point x="1249" y="571"/>
      <point x="1040" y="334"/>
      <point x="751" y="334" type="curve" smooth="yes"/>
      <point x="462" y="334"/>
      <point x="253" y="571"/>
      <point x="253" y="862" type="curve" smooth="yes"/>
      <point x="253" y="1153"/>
      <point x="462" y="1390"/>
      <point x="751" y="1390" type="curve" smooth="yes"/>
    </contour>
    <contour>
      <point x="529" y="1282" type="line"/>
      <point x="529" y="430" type="line"/>
      <point x="719" y="430" type="line"/>
      <point x="719" y="818" type="line"/>
      <point x="769" y="818"/>
      <point x="791" y="812"/>
      <point x="791" y="762" type="curve" smooth="yes"/>
      <point x="791" y="430" type="line"/>
      <point x="975" y="430" type="line"/>
      <point x="975" y="751" type="line" smooth="yes"/>
      <point x="975" y="822"/>
      <point x="949" y="863"/>
      <point x="896" y="873" type="curve"/>
      <point x="968" y="896"/>
      <point x="989" y="951"/>
      <point x="989" y="1043" type="curve" smooth="yes"/>
      <point x="989" y="1187"/>
      <point x="963" y="1282"/>
      <point x="818" y="1282" type="curve" smooth="yes"/>
    </contour>
    <contour>
      <point x="790" y="1124"/>
      <point x="805" y="1114"/>
      <point x="805" y="1043" type="curve" smooth="yes"/>
      <point x="805" y="991"/>
      <point x="793" y="965"/>
      <point x="768" y="965" type="curve" smooth="yes"/>
      <point x="720" y="965" type="line"/>
      <point x="720" y="1124" type="line"/>
    </contour>
  </outline>
</glyph>
<glyph name="macron" format="1">
  <advance width="696"/>
  <unicode hex="00AF"/>
  <outline>
    <contour>
      <point x="90" y="544" type="line"/>
      <point x="90" y="412" type="line"/>
      <point x="591" y="412" type="line"/>
      <point x="591" y="544" type="line"/>
    </contour>
    <contour>
      <point x="338" y="483" type="move" name="_center"/>
    </contour>
    <contour>
      <point x="348" y="300" type="move" name="_top"/>
    </contour>
  </outline>
</glyph>
<glyph name="degree" format="1">
  <advance width="915"/>
  <unicode hex="00B0"/>
  <outline>
    <contour>
      <point x="657" y="1269" type="curve" smooth="yes"/>
      <point x="657" y="1552.48"/>
      <point x="259" y="1553.91"/>
      <point x="259" y="1269" type="curve" smooth="yes"/>
      <point x="259" y="985.518"/>
      <point x="657" y="984.086"/>
    </contour>
    <contour>
      <point x="104" y="1269" type="curve" smooth="yes"/>
      <point x="104" y="1714.38"/>
      <point x="811" y="1714.34"/>
      <point x="811" y="1269" type="curve" smooth="yes"/>
      <point x="811" y="824.976"/>
      <point x="104" y="821.939"/>
    </contour>
  </outline>
</glyph>
<glyph name="plusminus" format="1">
  <advance width="854"/>
  <unicode hex="00B1"/>
  <outline>
    <contour>
      <point x="165" y="337" type="line"/>
      <point x="681" y="337" type="line"/>
      <point x="681" y="188" type="line"/>
      <point x="165" y="188" type="line"/>
    </contour>
    <contour>
      <point x="353" y="1152" type="line"/>
      <point x="501" y="1152" type="line"/>
      <point x="501" y="906" type="line"/>
      <point x="729" y="906" type="line"/>
      <point x="729" y="766" type="line"/>
      <point x="501" y="766" type="line"/>
      <point x="501" y="516" type="line"/>
      <point x="353" y="516" type="line"/>
      <point x="353" y="766" type="line"/>
      <point x="129" y="766" type="line"/>
      <point x="129" y="906" type="line"/>
      <point x="353" y="906" type="line"/>
    </contour>
  </outline>
</glyph>
<glyph name="uni00B2" format="1">
  <advance width="846"/>
  <unicode hex="00B2"/>
  <outline>
    <contour>
      <point x="243" y="1779"/>
      <point x="222" y="1618"/>
      <point x="222" y="1340" type="curve" smooth="yes"/>
      <point x="222" y="1262" type="line"/>
      <point x="370" y="1262" type="line"/>
      <point x="370" y="1428" type="line" smooth="yes"/>
      <point x="370" y="1618"/>
      <point x="408" y="1652"/>
      <point x="456" y="1652" type="curve" smooth="yes"/>
      <point x="502" y="1652"/>
      <point x="536" y="1617"/>
      <point x="536" y="1438" type="curve" smooth="yes"/>
      <point x="536" y="1350"/>
      <point x="514" y="1238"/>
      <point x="482" y="1179" type="curve" smooth="yes"/>
      <point x="452" y="1142"/>
      <point x="226" y="681"/>
      <point x="226" y="557" type="curve" smooth="yes"/>
      <point x="226" y="490" type="line"/>
      <point x="664" y="490" type="line"/>
      <point x="664" y="603" type="line"/>
      <point x="381" y="603" type="line"/>
      <point x="433" y="915"/>
      <point x="680" y="1087"/>
      <point x="680" y="1427" type="curve" smooth="yes"/>
      <point x="680" y="1602"/>
      <point x="638" y="1779"/>
      <point x="468" y="1779" type="curve" smooth="yes"/>
    </contour>
  </outline>
</glyph>
<glyph name="uni00B3" format="1">
  <advance width="868"/>
  <unicode hex="00B3"/>
  <outline>
    <contour>
      <point x="201" y="1467" type="line" smooth="yes"/>
      <point x="201" y="1674"/>
      <point x="264" y="1777"/>
      <point x="436" y="1777" type="curve" smooth="yes"/>
      <point x="606" y="1777"/>
      <point x="680" y="1671"/>
      <point x="680" y="1467" type="curve" smooth="yes"/>
      <point x="680" y="1336"/>
      <point x="647" y="1238"/>
      <point x="560" y="1206" type="curve"/>
      <point x="651" y="1166"/>
      <point x="682" y="1047"/>
      <point x="682" y="910" type="curve" smooth="yes"/>
      <point x="682" y="684"/>
      <point x="608" y="571"/>
      <point x="431" y="571" type="curve" smooth="yes"/>
      <point x="259" y="571"/>
      <point x="197" y="680"/>
      <point x="197" y="902" type="curve" smooth="yes"/>
      <point x="197" y="956" type="line"/>
      <point x="339" y="956" type="line"/>
      <point x="339" y="902" type="line" smooth="yes"/>
      <point x="339" y="742"/>
      <point x="352" y="689"/>
      <point x="435" y="689" type="curve" smooth="yes"/>
      <point x="518" y="689"/>
      <point x="536" y="752"/>
      <point x="536" y="911" type="curve" smooth="yes"/>
      <point x="536" y="1086"/>
      <point x="502" y="1148"/>
      <point x="402" y="1148" type="curve" smooth="yes"/>
      <point x="373" y="1148" type="line"/>
      <point x="373" y="1261" type="line"/>
      <point x="401" y="1261" type="line"/>
      <point x="497" y="1262"/>
      <point x="535" y="1294"/>
      <point x="535" y="1467" type="curve" smooth="yes"/>
      <point x="535" y="1627"/>
      <point x="492" y="1658"/>
      <point x="435" y="1658" type="curve" smooth="yes"/>
      <point x="374" y="1658"/>
      <point x="344" y="1617"/>
      <point x="344" y="1464" type="curve" smooth="yes"/>
      <point x="344" y="1439" type="line"/>
      <point x="201" y="1439" type="line"/>
    </contour>
  </outline>
</glyph>
<glyph name="acute" format="1">
  <advance width="567"/>
  <unicode hex="00B4"/>
  <outline>
    <contour>
      <point x="277" y="1341" type="line"/>
      <point x="166" y="1341" type="line"/>
      <point x="252" y="1760" type="line"/>
      <point x="451" y="1760" type="line"/>
    </contour>
  </outline>
</glyph>
<glyph name="paragraph" format="1">
  <advance width="1119"/>
  <unicode hex="00B6"/>
  <outline>
    <contour>
      <point x="654" y="1761" type="curve" smooth="yes"/>
      <point x="957" y="1761" type="line"/>
      <point x="957" y="0" type="line"/>
      <point x="779" y="0" type="line"/>
      <point x="779" y="1575" type="line"/>
      <point x="636" y="1575" type="line"/>
      <point x="636" y="0" type="line"/>
      <point x="458" y="0" type="line"/>
      <point x="458" y="1135" type="line"/>
      <point x="244" y="1159"/>
      <point x="135" y="1263"/>
      <point x="135" y="1456" type="curve" smooth="yes"/>
      <point x="135" y="1698"/>
      <point x="277" y="1761"/>
    </contour>
  </outline>
</glyph>
<glyph name="periodcentered" format="1">
  <advance width="480"/>
  <unicode hex="00B7"/>
  <outline>
    <contour>
      <point x="148" y="977" type="line"/>
      <point x="348" y="977" type="line"/>
      <point x="348" y="769" type="line"/>
      <point x="148" y="769" type="line"/>
    </contour>
  </outline>
</glyph>
<glyph name="cedilla" format="1">
  <advance width="1015"/>
  <unicode hex="00B8"/>
  <outline>
    <contour>
      <point x="462" y="0" type="line"/>
      <point x="422" y="-196" type="line"/>
      <point x="504" y="-214"/>
      <point x="582" y="-269"/>
      <point x="582" y="-359" type="curve" smooth="yes"/>
      <point x="582" y="-434"/>
      <point x="540" y="-501"/>
      <point x="351" y="-501" type="curve"/>
      <point x="351" y="-599" type="line"/>
      <point x="391" y="-611"/>
      <point x="430" y="-617"/>
      <point x="468" y="-617" type="curve" smooth="yes"/>
      <point x="637" y="-617"/>
      <point x="746" y="-507"/>
      <point x="746" y="-385" type="curve" smooth="yes"/>
      <point x="746" y="-294"/>
      <point x="682" y="-202"/>
      <point x="543" y="-144" type="curve"/>
      <point x="531" y="0" type="line"/>
    </contour>
    <contour>
      <point x="515" y="0" type="move" name="_bottom"/>
    </contour>
  </outline>
</glyph>
<glyph name="ordmasculine" format="1">
  <advance width="908"/>
  <unicode hex="00BA"/>
  <outline>
    <contour>
      <point x="249" y="1607"/>
      <point x="200" y="1438"/>
      <point x="200" y="1213" type="curve" smooth="yes"/>
      <point x="200" y="789" type="line" smooth="yes"/>
      <point x="200" y="540"/>
      <point x="244" y="377"/>
      <point x="471" y="377" type="curve" smooth="yes"/>
      <point x="699" y="377"/>
      <point x="737" y="545"/>
      <point x="737" y="789" type="curve" smooth="yes"/>
      <point x="737" y="1213" type="line" smooth="yes"/>
      <point x="737" y="1440"/>
      <point x="695" y="1607"/>
      <point x="471" y="1607" type="curve" smooth="yes"/>
    </contour>
    <contour>
      <point x="556" y="1470"/>
      <point x="571" y="1380"/>
      <point x="571" y="1246" type="curve" smooth="yes"/>
      <point x="571" y="743" type="line" smooth="yes"/>
      <point x="571" y="604"/>
      <point x="553" y="513"/>
      <point x="471" y="514" type="curve" smooth="yes"/>
      <point x="382" y="514"/>
      <point x="366" y="605"/>
      <point x="366" y="743" type="curve" smooth="yes"/>
      <point x="366" y="1246" type="line" smooth="yes"/>
      <point x="366" y="1380"/>
      <point x="380" y="1470"/>
      <point x="471" y="1470" type="curve" smooth="yes"/>
    </contour>
  </outline>
</glyph>
<glyph name="guillemotright" format="1">
  <advance width="1304"/>
  <unicode hex="00BB"/>
  <outline>
    <contour>
      <point x="710" y="903" type="line"/>
      <point x="1022" y="749" type="line"/>
      <point x="710" y="586" type="line"/>
      <point x="710" y="372" type="line"/>
      <point x="1188" y="657" type="line"/>
      <point x="1188" y="839" type="line"/>
      <point x="710" y="1110" type="line"/>
    </contour>
    <contour>
      <point x="172" y="903" type="line"/>
      <point x="484" y="749" type="line"/>
      <point x="172" y="586" type="line"/>
      <point x="172" y="372" type="line"/>
      <point x="650" y="657" type="line"/>
      <point x="650" y="839" type="line"/>
      <point x="172" y="1110" type="line"/>
    </contour>
  </outline>
</glyph>
<glyph name="onequarter" format="1">
  <advance width="1535"/>
  <unicode hex="00BC"/>
  <outline>
    <contour>
      <point x="946" y="1760" type="line"/>
      <point x="1079" y="1760" type="line"/>
      <point x="600" y="0" type="line"/>
      <point x="467" y="0" type="line"/>
    </contour>
    <contour>
      <point x="297" y="1760" type="curve"/>
      <point x="397" y="1760" type="line"/>
      <point x="397" y="514" type="line"/>
      <point x="250" y="514" type="line"/>
      <point x="250" y="1565" type="line"/>
      <point x="214" y="1527"/>
      <point x="148" y="1508"/>
      <point x="95" y="1508" type="curve"/>
      <point x="95" y="1604" type="line"/>
      <point x="170" y="1613"/>
      <point x="263" y="1669"/>
    </contour>
    <contour>
      <point x="1160" y="1147" type="line"/>
      <point x="1316" y="1147" type="line"/>
      <point x="1316" y="325" type="line"/>
      <point x="1406" y="325" type="line"/>
      <point x="1406" y="219" type="line"/>
      <point x="1316" y="219" type="line"/>
      <point x="1316" y="0" type="line"/>
      <point x="1190" y="0" type="line"/>
      <point x="1190" y="219" type="line"/>
      <point x="909" y="219" type="line"/>
      <point x="909" y="310" type="line"/>
    </contour>
    <contour>
      <point x="1190" y="325" type="line"/>
      <point x="1190" y="928" type="line"/>
      <point x="1028" y="325" type="line"/>
    </contour>
  </outline>
</glyph>
<glyph name="onehalf" format="1">
  <advance width="1620"/>
  <unicode hex="00BD"/>
  <outline>
    <contour>
      <point x="1092" y="833" type="line" smooth="yes"/>
      <point x="1092" y="1104"/>
      <point x="1111" y="1263"/>
      <point x="1332" y="1263" type="curve" smooth="yes"/>
      <point x="1499" y="1263"/>
      <point x="1538" y="1088"/>
      <point x="1538" y="918" type="curve" smooth="yes"/>
      <point x="1538" y="584"/>
      <point x="1295" y="415"/>
      <point x="1245" y="108" type="curve"/>
      <point x="1522" y="108" type="line"/>
      <point x="1522" y="0" type="line"/>
      <point x="1096" y="0" type="line"/>
      <point x="1096" y="65" type="line" smooth="yes"/>
      <point x="1096" y="183"/>
      <point x="1319" y="642"/>
      <point x="1346" y="674" type="curve"/>
      <point x="1378" y="733"/>
      <point x="1399" y="842"/>
      <point x="1399" y="929" type="curve" smooth="yes"/>
      <point x="1399" y="1107"/>
      <point x="1365" y="1141"/>
      <point x="1319" y="1141" type="curve" smooth="yes"/>
      <point x="1273" y="1141"/>
      <point x="1235" y="1108"/>
      <point x="1235" y="919" type="curve" smooth="yes"/>
      <point x="1235" y="756" type="line"/>
      <point x="1092" y="756" type="line"/>
    </contour>
    <contour>
      <point x="297" y="1760" type="curve"/>
      <point x="397" y="1760" type="line"/>
      <point x="397" y="514" type="line"/>
      <point x="250" y="514" type="line"/>
      <point x="250" y="1565" type="line"/>
      <point x="214" y="1527"/>
      <point x="148" y="1508"/>
      <point x="95" y="1508" type="curve"/>
      <point x="95" y="1604" type="line"/>
      <point x="170" y="1613"/>
      <point x="263" y="1669"/>
    </contour>
    <contour>
      <point x="956" y="1760" type="line"/>
      <point x="1089" y="1760" type="line"/>
      <point x="610" y="0" type="line"/>
      <point x="477" y="0" type="line"/>
    </contour>
  </outline>
</glyph>
<glyph name="threequarters" format="1">
  <advance width="1555"/>
  <unicode hex="00BE"/>
  <outline>
    <contour>
      <point x="123" y="1481" type="line" smooth="yes"/>
      <point x="123" y="1682"/>
      <point x="183" y="1782"/>
      <point x="344" y="1782" type="curve" smooth="yes"/>
      <point x="504" y="1782"/>
      <point x="572" y="1680"/>
      <point x="572" y="1481" type="curve" smooth="yes"/>
      <point x="572" y="1353"/>
      <point x="541" y="1257"/>
      <point x="458" y="1226" type="curve"/>
      <point x="544" y="1187"/>
      <point x="575" y="1071"/>
      <point x="575" y="937" type="curve" smooth="yes"/>
      <point x="575" y="718"/>
      <point x="505" y="609"/>
      <point x="340" y="609" type="curve" smooth="yes"/>
      <point x="179" y="609"/>
      <point x="119" y="714"/>
      <point x="119" y="931" type="curve" smooth="yes"/>
      <point x="119" y="981" type="line"/>
      <point x="251" y="981" type="line"/>
      <point x="251" y="931" type="line" smooth="yes"/>
      <point x="251" y="772"/>
      <point x="263" y="721"/>
      <point x="344" y="721" type="curve" smooth="yes"/>
      <point x="423" y="721"/>
      <point x="442" y="783"/>
      <point x="442" y="939" type="curve" smooth="yes"/>
      <point x="442" y="1111"/>
      <point x="408" y="1171"/>
      <point x="313" y="1171" type="curve" smooth="yes"/>
      <point x="285" y="1171" type="line"/>
      <point x="285" y="1282" type="line"/>
      <point x="311" y="1282" type="line"/>
      <point x="401" y="1283"/>
      <point x="440" y="1310"/>
      <point x="440" y="1481" type="curve" smooth="yes"/>
      <point x="440" y="1640"/>
      <point x="399" y="1670"/>
      <point x="343" y="1670" type="curve" smooth="yes"/>
      <point x="285" y="1670"/>
      <point x="256" y="1630"/>
      <point x="256" y="1478" type="curve"/>
      <point x="255" y="1454" type="line"/>
      <point x="123" y="1454" type="line"/>
    </contour>
    <contour>
      <point x="946" y="1760" type="line"/>
      <point x="1079" y="1760" type="line"/>
      <point x="600" y="0" type="line"/>
      <point x="467" y="0" type="line"/>
    </contour>
    <contour>
      <point x="1160" y="1147" type="line"/>
      <point x="1316" y="1147" type="line"/>
      <point x="1316" y="325" type="line"/>
      <point x="1406" y="325" type="line"/>
      <point x="1406" y="219" type="line"/>
      <point x="1316" y="219" type="line"/>
      <point x="1316" y="0" type="line"/>
      <point x="1190" y="0" type="line"/>
      <point x="1190" y="219" type="line"/>
      <point x="909" y="219" type="line"/>
      <point x="909" y="310" type="line"/>
    </contour>
    <contour>
      <point x="1190" y="325" type="line"/>
      <point x="1190" y="928" type="line"/>
      <point x="1028" y="325" type="line"/>
    </contour>
  </outline>
</glyph>
<glyph name="AE" format="1">
  <advance width="1223"/>
  <unicode hex="00C6"/>
  <outline>
    <contour>
      <point x="426" y="1760" type="line"/>
      <point x="73" y="0" type="line"/>
      <point x="271" y="0" type="line"/>
      <point x="336" y="336" type="line"/>
      <point x="603" y="336" type="line"/>
      <point x="603" y="0" type="line"/>
      <point x="1116" y="0" type="line"/>
      <point x="1116" y="172" type="line"/>
      <point x="810" y="172" type="line"/>
      <point x="810" y="812" type="line"/>
      <point x="1095" y="812" type="line"/>
      <point x="1095" y="986" type="line"/>
      <point x="810" y="986" type="line"/>
      <point x="810" y="1588" type="line"/>
      <point x="1112" y="1588" type="line"/>
      <point x="1112" y="1760" type="line"/>
    </contour>
    <contour>
      <point x="603" y="497" type="line"/>
      <point x="366" y="497" type="line"/>
      <point x="577" y="1589" type="line"/>
      <point x="603" y="1590" type="line"/>
    </contour>
    <contour>
      <point x="685" y="0" type="move" name="top"/>
    </contour>
  </outline>
</glyph>
<glyph name="AE" format="1">
  <advance width="1206"/>
  <unicode hex="00C6"/>
  <outline>
    <contour>
      <point x="419" y="1760" type="line"/>
      <point x="1105" y="1760" type="line"/>
      <point x="1105" y="1588" type="line"/>
      <point x="803" y="1588" type="line"/>
      <point x="803" y="986" type="line"/>
      <point x="1088" y="986" type="line"/>
      <point x="1088" y="812" type="line"/>
      <point x="803" y="812" type="line"/>
      <point x="803" y="172" type="line"/>
      <point x="1109" y="172" type="line"/>
      <point x="1109" y="0" type="line"/>
      <point x="596" y="0" type="line"/>
      <point x="596" y="336" type="line"/>
      <point x="329" y="336" type="line"/>
      <point x="264" y="0" type="line"/>
      <point x="66" y="0" type="line"/>
    </contour>
    <contour>
      <point x="596" y="497" type="line"/>
      <point x="596" y="1590" type="line"/>
      <point x="570" y="1589" type="line"/>
      <point x="359" y="497" type="line"/>
    </contour>
  </outline>
</glyph>
<glyph name="multiply" format="1">
  <advance width="710"/>
  <unicode hex="00D7"/>
  <outline>
    <contour>
      <point x="533.5" y="936" type="line"/>
      <point x="634.5" y="832" type="line"/>
      <point x="457.5" y="655" type="line"/>
      <point x="634.5" y="478" type="line"/>
      <point x="533.5" y="374" type="line"/>
      <point x="355" y="552.5" type="line"/>
      <point x="176.5" y="374" type="line"/>
      <point x="75.5" y="478" type="line"/>
      <point x="252.5" y="655" type="line"/>
      <point x="75.5" y="832" type="line"/>
      <point x="176.5" y="936" type="line"/>
      <point x="355" y="757.5" type="line"/>
    </contour>
  </outline>
</glyph>
<glyph name="Oslash" format="1">
  <advance width="900"/>
  <unicode hex="00D8"/>
  <outline>
    <contour>
      <point x="75" y="-166" type="line"/>
      <point x="174" y="-206" type="line"/>
      <point x="910" y="1870" type="line"/>
      <point x="803" y="1906" type="line"/>
    </contour>
    <component base="O"/>
    <contour>
      <point x="548" y="0" type="move" name="top"/>
    </contour>
  </outline>
</glyph>
<glyph name="Thorn" format="1">
  <advance width="927"/>
  <unicode hex="00DE"/>
  <outline>
    <contour>
      <point x="162" y="1760" type="line"/>
      <point x="368" y="1760" type="line"/>
      <point x="368" y="1499" type="line"/>
      <point x="515" y="1499" type="line" smooth="yes"/>
      <point x="798" y="1499"/>
      <point x="846" y="1300"/>
      <point x="847" y="987" type="curve"/>
      <point x="847" y="963" type="line" smooth="yes"/>
      <point x="847" y="609"/>
      <point x="780" y="422"/>
      <point x="515" y="422" type="curve" smooth="yes"/>
      <point x="368" y="422" type="line"/>
      <point x="368" y="0" type="line"/>
      <point x="162" y="0" type="line"/>
    </contour>
    <contour>
      <point x="641" y="994" type="line" smooth="yes"/>
      <point x="641" y="1222"/>
      <point x="619" y="1335"/>
      <point x="499" y="1335" type="curve" smooth="yes"/>
      <point x="368" y="1335" type="line"/>
      <point x="368" y="594" type="line"/>
      <point x="495" y="594" type="line" smooth="yes"/>
      <point x="616" y="594"/>
      <point x="641" y="689"/>
      <point x="641" y="964" type="curve" smooth="yes"/>
    </contour>
  </outline>
</glyph>
<glyph name="germandbls" format="1">
  <advance width="981"/>
  <unicode hex="00DF"/>
  <outline>
    <contour>
      <point x="191" y="1781"/>
      <point x="144" y="1660"/>
      <point x="144" y="1417" type="curve" smooth="yes"/>
      <point x="144" y="0" type="line"/>
      <point x="348" y="0" type="line"/>
      <point x="348" y="1470" type="line" smooth="yes"/>
      <point x="348" y="1590"/>
      <point x="387" y="1627"/>
      <point x="484" y="1627" type="curve" smooth="yes"/>
      <point x="596" y="1627"/>
      <point x="631" y="1590"/>
      <point x="631" y="1470" type="curve" smooth="yes"/>
      <point x="631" y="1170" type="line" smooth="yes"/>
      <point x="631" y="1058"/>
      <point x="589" y="1019"/>
      <point x="459" y="1019" type="curve"/>
      <point x="459" y="851" type="line"/>
      <point x="636" y="851"/>
      <point x="689" y="806"/>
      <point x="689" y="656" type="curve" smooth="yes"/>
      <point x="689" y="395" type="line" smooth="yes"/>
      <point x="689" y="199"/>
      <point x="653" y="168"/>
      <point x="450" y="168" type="curve"/>
      <point x="450" y="0" type="line"/>
      <point x="554" y="0" type="line" smooth="yes"/>
      <point x="854" y="0"/>
      <point x="891" y="177"/>
      <point x="891" y="476" type="curve" smooth="yes"/>
      <point x="891" y="553" type="line" smooth="yes"/>
      <point x="891" y="801"/>
      <point x="840" y="904"/>
      <point x="668" y="945" type="curve"/>
      <point x="792" y="986"/>
      <point x="831" y="1056"/>
      <point x="831" y="1220" type="curve" smooth="yes"/>
      <point x="831" y="1417" type="line" smooth="yes"/>
      <point x="831" y="1694"/>
      <point x="740" y="1781"/>
      <point x="474" y="1781" type="curve" smooth="yes"/>
    </contour>
  </outline>
</glyph>
<glyph name="ae" format="1">
  <advance width="1341"/>
  <unicode hex="00E6"/>
  <outline>
    <contour>
      <point x="806" y="1518"/>
      <point x="731" y="1483"/>
      <point x="683" y="1418" type="curve"/>
      <point x="646" y="1484"/>
      <point x="581" y="1518"/>
      <point x="467" y="1518" type="curve" smooth="yes"/>
      <point x="181" y="1518"/>
      <point x="137" y="1322"/>
      <point x="137" y="1066" type="curve" smooth="yes"/>
      <point x="137" y="1023" type="line"/>
      <point x="341" y="1023" type="line"/>
      <point x="341" y="1077" type="line" smooth="yes"/>
      <point x="341" y="1270"/>
      <point x="357" y="1347"/>
      <point x="462" y="1347" type="curve" smooth="yes"/>
      <point x="571" y="1347"/>
      <point x="577" y="1252"/>
      <point x="578" y="1063" type="curve" smooth="yes"/>
      <point x="578" y="962" type="line"/>
      <point x="311" y="854"/>
      <point x="120" y="797"/>
      <point x="118" y="537" type="curve" smooth="yes"/>
      <point x="118" y="390" type="line" smooth="yes"/>
      <point x="118" y="135"/>
      <point x="209" y="-13"/>
      <point x="396" y="-13" type="curve" smooth="yes"/>
      <point x="504" y="-13"/>
      <point x="616" y="56"/>
      <point x="662" y="115" type="curve"/>
      <point x="705" y="32"/>
      <point x="786" y="-18"/>
      <point x="917" y="-18" type="curve" smooth="yes"/>
      <point x="1206" y="-18"/>
      <point x="1230" y="193"/>
      <point x="1230" y="502" type="curve" smooth="yes"/>
      <point x="1230" y="562" type="line"/>
      <point x="1028" y="562" type="line"/>
      <point x="1028" y="451" type="line" smooth="yes"/>
      <point x="1028" y="276"/>
      <point x="1024" y="153"/>
      <point x="911" y="153" type="curve" smooth="yes"/>
      <point x="799" y="153"/>
      <point x="784" y="252"/>
      <point x="784" y="457" type="curve" smooth="yes"/>
      <point x="784" y="740" type="line"/>
      <point x="1232" y="740" type="line"/>
      <point x="1233" y="750"/>
      <point x="1233" y="1026"/>
      <point x="1233" y="1026" type="curve" smooth="yes"/>
      <point x="1233" y="1315"/>
      <point x="1192" y="1518"/>
      <point x="917" y="1518" type="curve" smooth="yes"/>
    </contour>
    <contour>
      <point x="577" y="257" type="line"/>
      <point x="561" y="212"/>
      <point x="505" y="153"/>
      <point x="433" y="153" type="curve" smooth="yes"/>
      <point x="348" y="153"/>
      <point x="325" y="221"/>
      <point x="325" y="391" type="curve" smooth="yes"/>
      <point x="325" y="527" type="line" smooth="yes"/>
      <point x="325" y="698"/>
      <point x="370" y="729"/>
      <point x="577" y="822" type="curve"/>
    </contour>
    <contour>
      <point x="1022" y="1349"/>
      <point x="1028" y="1252"/>
      <point x="1028" y="1073" type="curve" smooth="yes"/>
      <point x="1028" y="889" type="line"/>
      <point x="784" y="889" type="line"/>
      <point x="784" y="1060" type="line" smooth="yes"/>
      <point x="784" y="1233"/>
      <point x="797" y="1349"/>
      <point x="916" y="1349" type="curve" smooth="yes"/>
    </contour>
    <contour>
      <point x="773" y="368" type="move" name="top"/>
    </contour>
  </outline>
</glyph>
<glyph name="divide" format="1">
  <advance width="804"/>
  <unicode hex="00F7"/>
  <outline>
    <contour>
      <point x="94" y="870" type="line"/>
      <point x="94" y="638" type="line"/>
      <point x="710" y="638" type="line"/>
      <point x="710" y="870" type="line"/>
    </contour>
    <contour>
      <point x="253" y="535" type="line"/>
      <point x="253" y="237" type="line"/>
      <point x="551" y="237" type="line"/>
      <point x="551" y="535" type="line"/>
    </contour>
    <contour>
      <point x="253" y="1274" type="line"/>
      <point x="253" y="976" type="line"/>
      <point x="551" y="976" type="line"/>
      <point x="551" y="1274" type="line"/>
    </contour>
  </outline>
</glyph>
<glyph name="oslash" format="1">
  <advance width="879"/>
  <unicode hex="00F8"/>
  <outline>
    <component base="o"/>
    <contour>
      <point x="158" y="-145" type="line"/>
      <point x="667" y="1672" type="line"/>
      <point x="768" y="1644" type="line"/>
      <point x="258" y="-173" type="line"/>
    </contour>
  </outline>
</glyph>
<glyph name="thorn" format="1">
  <advance width="939"/>
  <unicode hex="00FE"/>
  <outline>
    <contour>
      <point x="147" y="1779" type="line"/>
      <point x="147" y="-274" type="line"/>
      <point x="353" y="-274" type="line"/>
      <point x="353" y="100" type="line"/>
      <point x="385" y="37"/>
      <point x="450" y="-18"/>
      <point x="526" y="-18" type="curve" smooth="yes"/>
      <point x="769" y="-18"/>
      <point x="814" y="203"/>
      <point x="814" y="487" type="curve" smooth="yes"/>
      <point x="814" y="1030" type="line" smooth="yes"/>
      <point x="814" y="1305"/>
      <point x="776" y="1513"/>
      <point x="559" y="1513" type="curve" smooth="yes"/>
      <point x="478" y="1513"/>
      <point x="393" y="1473"/>
      <point x="353" y="1375" type="curve"/>
      <point x="353" y="1779" type="line"/>
    </contour>
    <contour>
      <point x="598" y="1345"/>
      <point x="608" y="1230"/>
      <point x="608" y="1065" type="curve" smooth="yes"/>
      <point x="608" y="460" type="line" smooth="yes"/>
      <point x="608" y="250"/>
      <point x="587" y="156"/>
      <point x="487" y="155" type="curve" smooth="yes"/>
      <point x="375" y="155"/>
      <point x="353" y="253"/>
      <point x="353" y="452" type="curve" smooth="yes"/>
      <point x="353" y="1065" type="line" smooth="yes"/>
      <point x="353" y="1305"/>
      <point x="405" y="1345"/>
      <point x="492" y="1345" type="curve" smooth="yes"/>
    </contour>
  </outline>
</glyph>
<glyph name="Hbar" format="1">
  <advance width="984"/>
  <unicode hex="0126"/>
  <outline>
    <component base="H"/>
    <contour>
      <point x="55" y="1504" type="line"/>
      <point x="951" y="1504" type="line"/>
      <point x="951" y="1398" type="line"/>
      <point x="55" y="1398" type="line"/>
    </contour>
  </outline>
</glyph>
<glyph name="Hbar" format="1">
  <advance width="984"/>
  <unicode hex="0126"/>
  <outline>
    <contour>
      <point x="55" y="1504" type="line"/>
      <point x="55" y="1398" type="line"/>
      <point x="951" y="1398" type="line"/>
      <point x="951" y="1504" type="line"/>
    </contour>
    <component base="H"/>
  </outline>
</glyph>
<glyph name="dotlessi" format="1">
  <advance width="504"/>
  <unicode hex="0131"/>
  <outline>
    <contour>
      <point x="149" y="1500" type="line"/>
      <point x="149" y="0" type="line"/>
      <point x="355" y="0" type="line"/>
      <point x="355" y="1500" type="line"/>
    </contour>
    <contour>
      <point x="431" y="10" type="move" name="ogonek"/>
    </contour>
    <contour>
      <point x="245" y="1500" type="move" name="top"/>
    </contour>
  </outline>
</glyph>
<glyph name="Lcaron" format="1">
  <advance width="742"/>
  <unicode hex="013D"/>
  <outline>
    <contour>
      <point x="625" y="1753" type="line"/>
      <point x="625" y="1526" type="line"/>
      <point x="733" y="1526" type="line"/>
      <point x="684" y="1238" type="line"/>
      <point x="774" y="1238" type="line"/>
      <point x="860" y="1535" type="line"/>
      <point x="860" y="1753" type="line"/>
    </contour>
    <component base="L"/>
  </outline>
</glyph>
<glyph name="Lslash" format="1">
  <advance width="748"/>
  <unicode hex="0141"/>
  <outline>
    <component base="L"/>
    <contour>
      <point x="-1" y="916" type="line"/>
      <point x="554" y="1139" type="line"/>
      <point x="554" y="987" type="line"/>
      <point x="-1" y="764" type="line"/>
    </contour>
  </outline>
</glyph>
<glyph name="lslash" format="1">
  <advance width="691"/>
  <unicode hex="0142"/>
  <outline>
    <contour>
      <point x="75" y="921" type="line"/>
      <point x="75" y="754" type="line"/>
      <point x="601" y="986" type="line"/>
      <point x="601" y="1153" type="line"/>
    </contour>
    <component base="l" xOffset="68"/>
  </outline>
</glyph>
<glyph name="OE" format="1">
  <advance width="1222"/>
  <unicode hex="0152"/>
  <outline>
    <contour>
      <point x="477" y="1760" type="line" smooth="yes"/>
      <point x="195" y="1760"/>
      <point x="123" y="1585"/>
      <point x="123" y="1282" type="curve" smooth="yes"/>
      <point x="123" y="507" type="line" smooth="yes"/>
      <point x="123" y="154"/>
      <point x="208" y="0"/>
      <point x="472" y="0" type="curve" smooth="yes"/>
      <point x="1116" y="0" type="line"/>
      <point x="1116" y="172" type="line"/>
      <point x="814" y="172" type="line"/>
      <point x="814" y="812" type="line"/>
      <point x="1094" y="812" type="line"/>
      <point x="1094" y="986" type="line"/>
      <point x="814" y="986" type="line"/>
      <point x="814" y="1588" type="line"/>
      <point x="1111" y="1588" type="line"/>
      <point x="1111" y="1760" type="line"/>
    </contour>
    <contour>
      <point x="608" y="178" type="line"/>
      <point x="472" y="178" type="line" smooth="yes"/>
      <point x="352" y="179"/>
      <point x="330" y="245"/>
      <point x="330" y="505" type="curve" smooth="yes"/>
      <point x="330" y="1293" type="line" smooth="yes"/>
      <point x="330" y="1504"/>
      <point x="361" y="1581"/>
      <point x="477" y="1581" type="curve" smooth="yes"/>
      <point x="608" y="1581" type="line"/>
    </contour>
    <contour>
      <point x="656" y="0" type="move" name="top"/>
    </contour>
  </outline>
</glyph>
<glyph name="oe" format="1">
  <advance width="1689"/>
  <unicode hex="0153"/>
  <outline>
    <contour>
      <point x="810" y="1518"/>
      <point x="735" y="1472"/>
      <point x="684" y="1403" type="curve"/>
      <point x="633" y="1472"/>
      <point x="559" y="1518"/>
      <point x="453" y="1518" type="curve" smooth="yes"/>
      <point x="181" y="1518"/>
      <point x="115" y="1309"/>
      <point x="115" y="1027" type="curve" smooth="yes"/>
      <point x="115" y="497" type="line" smooth="yes"/>
      <point x="115" y="186"/>
      <point x="170" y="-18"/>
      <point x="453" y="-18" type="curve" smooth="yes"/>
      <point x="557" y="-18"/>
      <point x="630" y="28"/>
      <point x="680" y="96" type="curve"/>
      <point x="729" y="27"/>
      <point x="801" y="-18"/>
      <point x="910" y="-18" type="curve" smooth="yes"/>
      <point x="1202" y="-18"/>
      <point x="1231" y="190"/>
      <point x="1231" y="502" type="curve" smooth="yes"/>
      <point x="1231" y="562" type="line"/>
      <point x="1028" y="562" type="line"/>
      <point x="1029" y="561"/>
      <point x="1029" y="463"/>
      <point x="1029" y="451" type="curve" smooth="yes"/>
      <point x="1029" y="276"/>
      <point x="1024" y="153"/>
      <point x="912" y="153" type="curve" smooth="yes"/>
      <point x="795" y="153"/>
      <point x="785" y="254"/>
      <point x="785" y="444" type="curve" smooth="yes"/>
      <point x="785" y="740" type="line"/>
      <point x="1233" y="740" type="line"/>
      <point x="1234" y="750"/>
      <point x="1234" y="1026"/>
      <point x="1234" y="1026" type="curve" smooth="yes"/>
      <point x="1234" y="1315"/>
      <point x="1192" y="1518"/>
      <point x="918" y="1518" type="curve" smooth="yes"/>
    </contour>
    <contour>
      <point x="559" y="1347"/>
      <point x="579" y="1235"/>
      <point x="579" y="1068" type="curve" smooth="yes"/>
      <point x="579" y="439" type="line" smooth="yes"/>
      <point x="579" y="268"/>
      <point x="560" y="153"/>
      <point x="453" y="153" type="curve" smooth="yes"/>
      <point x="340" y="153"/>
      <point x="322" y="268"/>
      <point x="322" y="439" type="curve" smooth="yes"/>
      <point x="322" y="1068" type="line" smooth="yes"/>
      <point x="322" y="1235"/>
      <point x="340" y="1347"/>
      <point x="453" y="1347" type="curve" smooth="yes"/>
    </contour>
    <contour>
      <point x="1024" y="1349"/>
      <point x="1029" y="1252"/>
      <point x="1029" y="1073" type="curve" smooth="yes"/>
      <point x="1029" y="889" type="line"/>
      <point x="786" y="889" type="line"/>
      <point x="786" y="1061" type="line" smooth="yes"/>
      <point x="786" y="1228"/>
      <point x="799" y="1349"/>
      <point x="918" y="1349" type="curve" smooth="yes"/>
    </contour>
    <contour>
      <point x="757" y="0" type="move" name="top"/>
    </contour>
  </outline>
</glyph>
<glyph name="uni0237" format="1">
  <advance width="540"/>
  <unicode hex="0237"/>
  <outline>
    <contour>
      <point x="188" y="1500" type="line"/>
      <point x="188" y="60" type="line" smooth="yes"/>
      <point x="188" y="23"/>
      <point x="177" y="-3"/>
      <point x="139" y="-7" type="curve" smooth="yes"/>
      <point x="115" y="-9"/>
      <point x="82" y="-6"/>
      <point x="80" y="-6" type="curve"/>
      <point x="80" y="-150" type="line"/>
      <point x="85" y="-153"/>
      <point x="155" y="-166"/>
      <point x="227" y="-159" type="curve" smooth="yes"/>
      <point x="307" y="-155"/>
      <point x="394" y="-101"/>
      <point x="394" y="70" type="curve" smooth="yes"/>
      <point x="394" y="1500" type="line"/>
    </contour>
    <contour>
      <point x="299" y="1500" type="move" name="top"/>
    </contour>
  </outline>
</glyph>
<glyph name="circumflex" format="1">
  <advance width="970"/>
  <unicode hex="02C6"/>
  <outline>
    <contour>
      <point x="369" y="1886" type="line"/>
      <point x="601" y="1886" type="line"/>
      <point x="754" y="1592" type="line"/>
      <point x="571" y="1592" type="line"/>
      <point x="485" y="1797" type="line"/>
      <point x="399" y="1592" type="line"/>
      <point x="215" y="1592" type="line"/>
    </contour>
  </outline>
</glyph>
<glyph name="caron" format="1">
  <advance width="970"/>
  <unicode hex="02C7"/>
  <outline>
    <contour>
      <point x="571" y="1886" type="line"/>
      <point x="754" y="1886" type="line"/>
      <point x="601" y="1592" type="line"/>
      <point x="369" y="1592" type="line"/>
      <point x="215" y="1886" type="line"/>
      <point x="399" y="1886" type="line"/>
      <point x="485" y="1681" type="line"/>
    </contour>
  </outline>
</glyph>
<glyph name="dotaccent" format="1">
  <advance width="572"/>
  <unicode hex="02D9"/>
  <outline>
    <contour>
      <point x="184" y="583" type="line"/>
      <point x="184" y="405" type="line"/>
      <point x="397" y="405" type="line"/>
      <point x="397" y="583" type="line"/>
    </contour>
    <contour>
      <point x="286" y="300" type="move" name="_top"/>
    </contour>
  </outline>
</glyph>
<glyph name="ring" format="1">
  <advance width="923"/>
  <unicode hex="02DA"/>
  <outline>
    <contour>
      <point x="332" y="771"/>
      <point x="261" y="683"/>
      <point x="261" y="584" type="curve" smooth="yes"/>
      <point x="261" y="484"/>
      <point x="332" y="396"/>
      <point x="461" y="396" type="curve" smooth="yes"/>
      <point x="591" y="396"/>
      <point x="661" y="484"/>
      <point x="661" y="584" type="curve" smooth="yes"/>
      <point x="661" y="683"/>
      <point x="591" y="771"/>
      <point x="461" y="771" type="curve" smooth="yes"/>
    </contour>
    <contour>
      <point x="534" y="700"/>
      <point x="571" y="642"/>
      <point x="571" y="584" type="curve" smooth="yes"/>
      <point x="571" y="526"/>
      <point x="534" y="468"/>
      <point x="461" y="468" type="curve" smooth="yes"/>
      <point x="390" y="468"/>
      <point x="354" y="526"/>
      <point x="354" y="584" type="curve" smooth="yes"/>
      <point x="354" y="642"/>
      <point x="390" y="700"/>
      <point x="461" y="700" type="curve" smooth="yes"/>
    </contour>
    <contour>
      <point x="462" y="300" type="move" name="_top"/>
    </contour>
  </outline>
</glyph>
<glyph name="ogonek" format="1">
  <advance width="1015"/>
  <unicode hex="02DB"/>
  <outline>
    <contour>
      <point x="646" y="0" type="line"/>
      <point x="469" y="-100"/>
      <point x="373" y="-262"/>
      <point x="373" y="-396" type="curve" smooth="yes"/>
      <point x="373" y="-529"/>
      <point x="461" y="-626"/>
      <point x="643" y="-626" type="curve" smooth="yes"/>
      <point x="711" y="-626"/>
      <point x="789" y="-604"/>
      <point x="812" y="-591" type="curve"/>
      <point x="812" y="-476" type="line"/>
      <point x="806" y="-478"/>
      <point x="749" y="-496"/>
      <point x="680" y="-496" type="curve" smooth="yes"/>
      <point x="582" y="-496"/>
      <point x="531" y="-447"/>
      <point x="531" y="-365" type="curve" smooth="yes"/>
      <point x="531" y="-259"/>
      <point x="612" y="-117"/>
      <point x="731" y="0" type="curve"/>
    </contour>
    <contour>
      <point x="830" y="3" type="move" name="_ogonek"/>
    </contour>
  </outline>
</glyph>
<glyph name="tilde" format="1">
  <advance width="1117"/>
  <unicode hex="02DC"/>
  <outline>
    <contour>
      <point x="245" y="492" type="line"/>
      <point x="284" y="627"/>
      <point x="349" y="650"/>
      <point x="425" y="650" type="curve" smooth="yes"/>
      <point x="506" y="650"/>
      <point x="637" y="576"/>
      <point x="687" y="576" type="curve" smooth="yes"/>
      <point x="691" y="576" type="line"/>
      <point x="710" y="579"/>
      <point x="726" y="587"/>
      <point x="747" y="647" type="curve"/>
      <point x="870" y="619" type="line"/>
      <point x="861" y="582" type="line"/>
      <point x="826" y="449"/>
      <point x="781" y="422"/>
      <point x="705" y="422" type="curve" smooth="yes"/>
      <point x="617" y="422"/>
      <point x="513" y="504"/>
      <point x="430" y="504" type="curve" smooth="yes"/>
      <point x="422" y="504"/>
      <point x="414" y="504"/>
      <point x="407" y="502" type="curve" smooth="yes"/>
      <point x="385" y="497"/>
      <point x="374" y="478"/>
      <point x="356" y="443" type="curve"/>
    </contour>
  </outline>
</glyph>
<glyph name="hungarumlaut" format="1">
  <advance width="1170"/>
  <unicode hex="02DD"/>
  <outline>
    <contour>
      <point x="568" y="505" type="line"/>
      <point x="753" y="1020" type="line"/>
      <point x="941" y="925" type="line"/>
      <point x="657" y="459" type="line"/>
    </contour>
    <contour>
      <point x="276" y="505" type="line"/>
      <point x="404" y="1020" type="line"/>
      <point x="589" y="933" type="line"/>
      <point x="366" y="467" type="line"/>
    </contour>
  </outline>
</glyph>
<glyph name="uni0302" format="1">
  <advance width="697"/>
  <unicode hex="0302"/>
  <outline>
    <contour>
      <point x="239" y="1762" type="line"/>
      <point x="471" y="1762" type="line"/>
      <point x="624" y="1468" type="line"/>
      <point x="441" y="1468" type="line"/>
      <point x="355" y="1673" type="line"/>
      <point x="269" y="1468" type="line"/>
      <point x="85" y="1468" type="line"/>
    </contour>
  </outline>
</glyph>
<glyph name="uni0307" format="1">
  <advance width="572"/>
  <unicode hex="0307"/>
  <outline>
    <contour>
      <point x="147" y="716" type="line"/>
      <point x="425" y="716" type="line"/>
      <point x="425" y="458" type="line"/>
      <point x="147" y="458" type="line"/>
    </contour>
  </outline>
</glyph>
<glyph name="dblgravecmb" format="1">
  <advance width="825"/>
  <unicode hex="030F"/>
  <outline>
    <contour>
      <point x="339" y="1957" type="line"/>
      <point x="497" y="2057" type="line"/>
      <point x="657" y="1690" type="line"/>
      <point x="563" y="1640" type="line"/>
    </contour>
    <contour>
      <point x="6" y="1957" type="line"/>
      <point x="168" y="2057" type="line"/>
      <point x="365" y="1690" type="line"/>
      <point x="271" y="1640" type="line"/>
    </contour>
  </outline>
</glyph>
<glyph name="mu" format="1">
  <advance width="971"/>
  <unicode hex="03BC"/>
  <outline>
    <contour>
      <point x="616" y="1500" type="line"/>
      <point x="822" y="1500" type="line"/>
      <point x="822" y="0" type="line"/>
      <point x="616" y="0" type="line"/>
      <point x="616" y="153" type="line"/>
      <point x="586" y="59"/>
      <point x="510" y="-20"/>
      <point x="388" y="-20" type="curve" smooth="yes"/>
      <point x="371" y="-20"/>
      <point x="354" y="-19"/>
      <point x="338" y="-15" type="curve"/>
      <point x="338" y="-186" type="line"/>
      <point x="137" y="-186" type="line"/>
      <point x="137" y="1500" type="line"/>
      <point x="342" y="1500" type="line"/>
      <point x="342" y="335" type="line" smooth="yes"/>
      <point x="342" y="219"/>
      <point x="382" y="158"/>
      <point x="471" y="158" type="curve" smooth="yes"/>
      <point x="570" y="158"/>
      <point x="616" y="235"/>
      <point x="616" y="340" type="curve" smooth="yes"/>
    </contour>
  </outline>
</glyph>
<glyph name="quoteleft" format="1">
  <advance width="591"/>
  <unicode hex="2018"/>
  <outline>
    <contour>
      <point x="268" y="1760" type="line"/>
      <point x="397" y="1760" type="line"/>
      <point x="305" y="1337" type="line"/>
      <point x="453" y="1337" type="line"/>
      <point x="453" y="1097" type="line"/>
      <point x="144" y="1097" type="line"/>
      <point x="144" y="1328" type="line"/>
    </contour>
  </outline>
</glyph>
<glyph name="quotedblleft" format="1">
  <advance width="1030"/>
  <unicode hex="201C"/>
  <outline>
    <contour>
      <point x="273" y="1779" type="line"/>
      <point x="406" y="1779" type="line"/>
      <point x="320" y="1378" type="line"/>
      <point x="461" y="1378" type="line"/>
      <point x="461" y="1145" type="line"/>
      <point x="159" y="1145" type="line"/>
      <point x="159" y="1369" type="line"/>
    </contour>
    <contour>
      <point x="730" y="1779" type="line"/>
      <point x="862" y="1779" type="line"/>
      <point x="776" y="1378" type="line"/>
      <point x="917" y="1378" type="line"/>
      <point x="917" y="1145" type="line"/>
      <point x="615" y="1145" type="line"/>
      <point x="615" y="1369" type="line"/>
    </contour>
  </outline>
</glyph>
<glyph name="quotedblright" format="1">
  <advance width="1077"/>
  <unicode hex="201D"/>
  <outline>
    <contour>
      <point x="630" y="1760" type="line"/>
      <point x="932" y="1760" type="line"/>
      <point x="932" y="1536" type="line"/>
      <point x="817" y="1126" type="line"/>
      <point x="684" y="1126" type="line"/>
      <point x="770" y="1527" type="line"/>
      <point x="630" y="1527" type="line"/>
    </contour>
    <contour>
      <point x="173" y="1760" type="line"/>
      <point x="475" y="1760" type="line"/>
      <point x="475" y="1536" type="line"/>
      <point x="361" y="1126" type="line"/>
      <point x="228" y="1126" type="line"/>
      <point x="314" y="1527" type="line"/>
      <point x="173" y="1527" type="line"/>
    </contour>
  </outline>
</glyph>
<glyph name="quotedblbase" format="1">
  <advance width="1016"/>
  <unicode hex="201E"/>
  <outline>
    <contour>
      <point x="166" y="233" type="line"/>
      <point x="468" y="233" type="line"/>
      <point x="468" y="9" type="line"/>
      <point x="353" y="-401" type="line"/>
      <point x="221" y="-401" type="line"/>
      <point x="307" y="0" type="line"/>
      <point x="166" y="0" type="line"/>
    </contour>
    <contour>
      <point x="622" y="233" type="line"/>
      <point x="924" y="233" type="line"/>
      <point x="924" y="9" type="line"/>
      <point x="810" y="-401" type="line"/>
      <point x="677" y="-401" type="line"/>
      <point x="763" y="0" type="line"/>
      <point x="622" y="0" type="line"/>
    </contour>
  </outline>
</glyph>
<glyph name="dagger" format="1">
  <advance width="909"/>
  <unicode hex="2020"/>
  <outline>
    <contour>
      <point x="352" y="1592" type="line"/>
      <point x="352" y="1182" type="line"/>
      <point x="91" y="1182" type="line"/>
      <point x="91" y="1017" type="line"/>
      <point x="352" y="1017" type="line"/>
      <point x="352" y="0" type="line"/>
      <point x="560" y="0" type="line"/>
      <point x="560" y="1017" type="line"/>
      <point x="818" y="1017" type="line"/>
      <point x="818" y="1182" type="line"/>
      <point x="560" y="1182" type="line"/>
      <point x="560" y="1592" type="line"/>
    </contour>
  </outline>
</glyph>
<glyph name="perthousand" format="1">
  <advance width="3042"/>
  <unicode hex="2030"/>
  <outline>
    <contour>
      <point x="2701" y="832" type="line" smooth="yes"/>
      <point x="2701" y="974"/>
      <point x="2674" y="1020"/>
      <point x="2576" y="1020" type="curve" smooth="yes"/>
      <point x="2478" y="1020"/>
      <point x="2451" y="973"/>
      <point x="2451" y="832" type="curve" smooth="yes"/>
      <point x="2451" y="336" type="line" smooth="yes"/>
      <point x="2451" y="191"/>
      <point x="2479" y="141"/>
      <point x="2576" y="141" type="curve" smooth="yes"/>
      <point x="2673" y="141"/>
      <point x="2701" y="191"/>
      <point x="2701" y="336" type="curve" smooth="yes"/>
    </contour>
    <contour>
      <point x="2265" y="763" type="line" smooth="yes"/>
      <point x="2265" y="1074"/>
      <point x="2342" y="1181"/>
      <point x="2576" y="1181" type="curve" smooth="yes"/>
      <point x="2809" y="1181"/>
      <point x="2886" y="1074"/>
      <point x="2886" y="763" type="curve" smooth="yes"/>
      <point x="2886" y="408" type="line" smooth="yes"/>
      <point x="2886" y="91"/>
      <point x="2806" y="-20"/>
      <point x="2576" y="-20" type="curve" smooth="yes"/>
      <point x="2345" y="-20"/>
      <point x="2265" y="91"/>
      <point x="2265" y="408" type="curve" smooth="yes"/>
    </contour>
    <contour>
      <point x="1419" y="763" type="line" smooth="yes"/>
      <point x="1419" y="1074"/>
      <point x="1496" y="1181"/>
      <point x="1729" y="1181" type="curve" smooth="yes"/>
      <point x="1963" y="1181"/>
      <point x="2040" y="1074"/>
      <point x="2040" y="763" type="curve" smooth="yes"/>
      <point x="2040" y="408" type="line" smooth="yes"/>
      <point x="2040" y="91"/>
      <point x="1960" y="-20"/>
      <point x="1729" y="-20" type="curve" smooth="yes"/>
      <point x="1499" y="-20"/>
      <point x="1419" y="91"/>
      <point x="1419" y="408" type="curve" smooth="yes"/>
    </contour>
    <contour>
      <point x="1854" y="832" type="line" smooth="yes"/>
      <point x="1854" y="974"/>
      <point x="1827" y="1020"/>
      <point x="1729" y="1020" type="curve" smooth="yes"/>
      <point x="1631" y="1020"/>
      <point x="1604" y="973"/>
      <point x="1604" y="832" type="curve" smooth="yes"/>
      <point x="1604" y="336" type="line" smooth="yes"/>
      <point x="1604" y="191"/>
      <point x="1632" y="141"/>
      <point x="1729" y="141" type="curve" smooth="yes"/>
      <point x="1826" y="141"/>
      <point x="1854" y="191"/>
      <point x="1854" y="336" type="curve" smooth="yes"/>
    </contour>
    <contour>
      <point x="156" y="1364" type="line" smooth="yes"/>
      <point x="156" y="1675"/>
      <point x="233" y="1782"/>
      <point x="466" y="1782" type="curve" smooth="yes"/>
      <point x="700" y="1782"/>
      <point x="777" y="1675"/>
      <point x="777" y="1364" type="curve" smooth="yes"/>
      <point x="777" y="1009" type="line" smooth="yes"/>
      <point x="777" y="692"/>
      <point x="697" y="581"/>
      <point x="466" y="581" type="curve" smooth="yes"/>
      <point x="236" y="581"/>
      <point x="156" y="692"/>
      <point x="156" y="1009" type="curve" smooth="yes"/>
    </contour>
    <contour>
      <point x="591" y="1433" type="line" smooth="yes"/>
      <point x="591" y="1575"/>
      <point x="564" y="1621"/>
      <point x="466" y="1621" type="curve" smooth="yes"/>
      <point x="368" y="1621"/>
      <point x="341" y="1574"/>
      <point x="341" y="1433" type="curve" smooth="yes"/>
      <point x="341" y="937" type="line" smooth="yes"/>
      <point x="341" y="792"/>
      <point x="369" y="742"/>
      <point x="466" y="742" type="curve" smooth="yes"/>
      <point x="563" y="742"/>
      <point x="591" y="792"/>
      <point x="591" y="937" type="curve" smooth="yes"/>
    </contour>
    <contour>
      <point x="1360" y="1760" type="line"/>
      <point x="1531" y="1760" type="line"/>
      <point x="831" y="0" type="line"/>
      <point x="652" y="0" type="line"/>
    </contour>
  </outline>
</glyph>
<glyph name="guilsinglleft" format="1">
  <advance width="606"/>
  <unicode hex="2039"/>
  <outline>
    <contour>
      <point x="70" y="839" type="line"/>
      <point x="548" y="1110" type="line"/>
      <point x="548" y="903" type="line"/>
      <point x="236" y="749" type="line"/>
      <point x="548" y="586" type="line"/>
      <point x="548" y="372" type="line"/>
      <point x="70" y="657" type="line"/>
    </contour>
  </outline>
</glyph>
<glyph name="fraction" format="1">
  <advance width="829"/>
  <unicode hex="2044"/>
  <outline>
    <contour>
      <point x="531" y="1768" type="line"/>
      <point x="709" y="1768" type="line"/>
      <point x="253" y="0" type="line"/>
      <point x="76" y="0" type="line"/>
    </contour>
  </outline>
</glyph>
<glyph name="uni2074" format="1">
  <advance width="855"/>
  <unicode hex="2074"/>
  <outline>
    <contour>
      <point x="448" y="1760" type="line"/>
      <point x="619" y="1760" type="line"/>
      <point x="619" y="914" type="line"/>
      <point x="711" y="914" type="line"/>
      <point x="711" y="802" type="line"/>
      <point x="619" y="802" type="line"/>
      <point x="619" y="578" type="line"/>
      <point x="483" y="578" type="line"/>
      <point x="483" y="802" type="line"/>
      <point x="188" y="802" type="line"/>
      <point x="188" y="899" type="line"/>
    </contour>
    <contour>
      <point x="483" y="914" type="line"/>
      <point x="483" y="1525" type="line"/>
      <point x="316" y="914" type="line"/>
    </contour>
  </outline>
</glyph>
<glyph name="Euro" format="1">
  <advance width="1076"/>
  <unicode hex="20AC"/>
  <outline>
    <component base="C"/>
    <contour>
      <point x="23" y="1106" type="line"/>
      <point x="518" y="1106" type="line"/>
      <point x="518" y="966" type="line"/>
      <point x="254" y="966" type="line"/>
      <point x="254" y="869" type="line"/>
      <point x="518" y="869" type="line"/>
      <point x="518" y="721" type="line"/>
      <point x="23" y="721" type="line"/>
      <point x="23" y="869" type="line"/>
      <point x="164" y="869" type="line"/>
      <point x="164" y="966" type="line"/>
      <point x="23" y="966" type="line"/>
    </contour>
  </outline>
</glyph>
<glyph name="trademark" format="1">
  <advance width="1537"/>
  <unicode hex="2122"/>
  <outline>
    <contour>
      <point x="1206" y="1760" type="line"/>
      <point x="1413" y="1760" type="line"/>
      <point x="1413" y="475" type="line"/>
      <point x="1273" y="475" type="line"/>
      <point x="1273" y="1000" type="line"/>
      <point x="1285" y="1497" type="line"/>
      <point x="1115" y="475" type="line"/>
      <point x="966" y="475" type="line"/>
      <point x="789" y="1497" type="line"/>
      <point x="801" y="1000" type="line"/>
      <point x="801" y="475" type="line"/>
      <point x="661" y="475" type="line"/>
      <point x="661" y="1760" type="line"/>
      <point x="868" y="1760" type="line"/>
      <point x="1040" y="716" type="line"/>
    </contour>
    <contour>
      <point x="103" y="1760" type="line"/>
      <point x="531" y="1760" type="line"/>
      <point x="531" y="1634" type="line"/>
      <point x="398" y="1634" type="line"/>
      <point x="398" y="475" type="line"/>
      <point x="246" y="475" type="line"/>
      <point x="246" y="1634" type="line"/>
      <point x="103" y="1634" type="line"/>
    </contour>
  </outline>
</glyph>
<glyph name="partialdiff" format="1">
  <advance width="1072"/>
  <unicode hex="2202"/>
  <outline>
    <contour>
      <point x="632" y="899" type="line"/>
      <point x="598.528" y="919.825"/>
      <point x="555.91" y="939.715"/>
      <point x="515.839" y="939.715" type="curve" smooth="yes"/>
      <point x="458.92" y="939.715"/>
      <point x="407.138" y="899.584"/>
      <point x="394" y="765" type="curve" smooth="yes"/>
      <point x="353" y="345" type="line" smooth="yes"/>
      <point x="351.286" y="327.443"/>
      <point x="350.478" y="311.03"/>
      <point x="350.478" y="295.732" type="curve" smooth="yes"/>
      <point x="350.478" y="175.469"/>
      <point x="397.71" y="144.342"/>
      <point x="453.641" y="144.342" type="curve" smooth="yes"/>
      <point x="513.806" y="144.342"/>
      <point x="556.744" y="146.445"/>
      <point x="571" y="289" type="curve" smooth="yes"/>
    </contour>
    <contour>
      <point x="259" y="1607" type="line"/>
      <point x="373.105" y="1637.94"/>
      <point x="467.183" y="1651.95"/>
      <point x="544.361" y="1651.95" type="curve" smooth="yes"/>
      <point x="797.228" y="1651.95"/>
      <point x="868.677" y="1501.52"/>
      <point x="868.677" y="1303.04" type="curve" smooth="yes"/>
      <point x="868.677" y="1238.89"/>
      <point x="861.214" y="1169.73"/>
      <point x="850" y="1099" type="curve"/>
      <point x="750" y="246" type="line" smooth="yes"/>
      <point x="735.872" y="125.492"/>
      <point x="669" y="-21"/>
      <point x="446" y="-21" type="curve" smooth="yes"/>
      <point x="280.778" y="-21"/>
      <point x="162.204" y="58.1569"/>
      <point x="162.204" y="309.58" type="curve" smooth="yes"/>
      <point x="162.204" y="319.808"/>
      <point x="162.401" y="330.322"/>
      <point x="162.798" y="341.127" type="curve" smooth="yes"/>
      <point x="182.798" y="885.004"/>
      <point x="242.175" y="1086"/>
      <point x="485" y="1086" type="curve" smooth="yes"/>
      <point x="548" y="1086"/>
      <point x="577" y="1073"/>
      <point x="654" y="1047" type="curve"/>
      <point x="669.614" y="1149.6"/>
      <point x="683.967" y="1241.08"/>
      <point x="683.967" y="1315.59" type="curve" smooth="yes"/>
      <point x="683.967" y="1442.24"/>
      <point x="642.494" y="1519.89"/>
      <point x="495.24" y="1519.89" type="curve" smooth="yes"/>
      <point x="440.319" y="1519.89"/>
      <point x="370.685" y="1509.09"/>
      <point x="283" y="1486" type="curve"/>
    </contour>
  </outline>
</glyph>
<glyph name="summation" format="1">
  <advance width="716"/>
  <unicode hex="2211"/>
  <outline>
    <contour>
      <point x="116" y="1761" type="line"/>
      <point x="663" y="1761" type="line"/>
      <point x="663" y="1581" type="line"/>
      <point x="350" y="1581" type="line"/>
      <point x="588" y="880" type="line"/>
      <point x="350" y="185" type="line"/>
      <point x="663" y="185" type="line"/>
      <point x="663" y="0" type="line"/>
      <point x="116" y="0" type="line"/>
      <point x="116" y="181" type="line"/>
      <point x="361" y="881" type="line"/>
      <point x="116" y="1585" type="line"/>
    </contour>
  </outline>
</glyph>
<glyph name="uni2215" format="1">
  <advance width="829"/>
  <unicode hex="2215"/>
  <outline>
    <contour>
      <point x="531" y="1768" type="line"/>
      <point x="76" y="0" type="line"/>
      <point x="253" y="0" type="line"/>
      <point x="709" y="1768" type="line"/>
    </contour>
  </outline>
</glyph>
<glyph name="radical" format="1">
  <advance width="1537"/>
  <unicode hex="221A"/>
  <outline>
    <contour>
      <point x="679" y="1500" type="line"/>
      <point x="478" y="258" type="line"/>
      <point x="328" y="741" type="line"/>
      <point x="99" y="741" type="line"/>
      <point x="363" y="0" type="line"/>
      <point x="617" y="0" type="line"/>
      <point x="878" y="1359" type="line"/>
      <point x="1442" y="1359" type="line"/>
      <point x="1442" y="1500" type="line"/>
    </contour>
  </outline>
</glyph>
<glyph name="infinity" format="1">
  <advance width="1300"/>
  <unicode hex="221E"/>
  <outline>
    <contour>
      <point x="639" y="885" type="curve"/>
      <point x="715" y="979"/>
      <point x="824" y="1041"/>
      <point x="912" y="1041" type="curve" smooth="yes"/>
      <point x="1074" y="1041"/>
      <point x="1182" y="922"/>
      <point x="1182" y="744" type="curve" smooth="yes"/>
      <point x="1182" y="561"/>
      <point x="1074" y="439"/>
      <point x="912" y="439" type="curve" smooth="yes"/>
      <point x="817" y="439"/>
      <point x="708" y="497"/>
      <point x="639" y="585" type="curve"/>
      <point x="568" y="505"/>
      <point x="460" y="452"/>
      <point x="370" y="452" type="curve" smooth="yes"/>
      <point x="213" y="452"/>
      <point x="108" y="569"/>
      <point x="108" y="744" type="curve" smooth="yes"/>
      <point x="108" y="914"/>
      <point x="213" y="1028"/>
      <point x="370" y="1028" type="curve" smooth="yes"/>
      <point x="454" y="1028"/>
      <point x="562" y="971"/>
    </contour>
    <contour>
      <point x="588" y="740" type="curve"/>
      <point x="534" y="826"/>
      <point x="449" y="884"/>
      <point x="374" y="884" type="curve" smooth="yes"/>
      <point x="306" y="884"/>
      <point x="261" y="826"/>
      <point x="261" y="740" type="curve" smooth="yes"/>
      <point x="261" y="652"/>
      <point x="306" y="594"/>
      <point x="374" y="594" type="curve" smooth="yes"/>
      <point x="447" y="594"/>
      <point x="532" y="652"/>
    </contour>
    <contour>
      <point x="1031" y="740" type="curve" smooth="yes"/>
      <point x="1031" y="828"/>
      <point x="983" y="886"/>
      <point x="910" y="886" type="curve" smooth="yes"/>
      <point x="834" y="886"/>
      <point x="744" y="828"/>
      <point x="686" y="740" type="curve"/>
      <point x="740" y="652"/>
      <point x="830" y="594"/>
      <point x="910" y="594" type="curve" smooth="yes"/>
      <point x="983" y="594"/>
      <point x="1031" y="652"/>
    </contour>
  </outline>
</glyph>
<glyph name="integral" format="1">
  <advance width="767"/>
  <unicode hex="222B"/>
  <outline>
    <contour>
      <point x="286" y="1539" type="line" smooth="yes"/>
      <point x="286" y="1703"/>
      <point x="351" y="1785"/>
      <point x="483" y="1785" type="curve" smooth="yes"/>
      <point x="536" y="1785"/>
      <point x="593" y="1774"/>
      <point x="652" y="1752" type="curve"/>
      <point x="652" y="1603" type="line"/>
      <point x="612" y="1615"/>
      <point x="581" y="1622"/>
      <point x="557" y="1622" type="curve" smooth="yes"/>
      <point x="498" y="1622"/>
      <point x="480" y="1584"/>
      <point x="480" y="1503" type="curve" smooth="yes"/>
      <point x="480" y="221" type="line" smooth="yes"/>
      <point x="480" y="66"/>
      <point x="415" y="-15"/>
      <point x="270" y="-15" type="curve" smooth="yes"/>
      <point x="220" y="-15"/>
      <point x="169" y="-7"/>
      <point x="115" y="8" type="curve"/>
      <point x="115" y="157" type="line"/>
      <point x="135" y="156"/>
      <point x="152" y="154"/>
      <point x="167" y="154" type="curve" smooth="yes"/>
      <point x="272" y="154"/>
      <point x="286" y="187"/>
      <point x="286" y="305" type="curve" smooth="yes"/>
    </contour>
  </outline>
</glyph>
<glyph name="lessequal" format="1">
  <advance width="781"/>
  <unicode hex="2264"/>
  <outline>
    <contour>
      <point x="70" y="878" type="line"/>
      <point x="647" y="1259" type="line"/>
      <point x="647" y="1039" type="line"/>
      <point x="213" y="774" type="line"/>
      <point x="647" y="496" type="line"/>
      <point x="647" y="282" type="line"/>
      <point x="70" y="667" type="line"/>
    </contour>
    <contour>
      <point x="102" y="144" type="line"/>
      <point x="642" y="144" type="line"/>
      <point x="642" y="0" type="line"/>
      <point x="102" y="0" type="line"/>
    </contour>
  </outline>
</glyph>
<glyph name="greaterequal" format="1">
  <advance width="781"/>
  <unicode hex="2265"/>
  <outline>
    <contour>
      <point x="103" y="1039" type="line"/>
      <point x="536" y="774" type="line"/>
      <point x="103" y="496" type="line"/>
      <point x="103" y="282" type="line"/>
      <point x="680" y="667" type="line"/>
      <point x="680" y="878" type="line"/>
      <point x="103" y="1259" type="line"/>
    </contour>
    <contour>
      <point x="105" y="144" type="line"/>
      <point x="105" y="0" type="line"/>
      <point x="645" y="0" type="line"/>
      <point x="645" y="144" type="line"/>
    </contour>
  </outline>
</glyph>
<glyph name="lozenge" format="1">
  <advance width="921"/>
  <unicode hex="25CA"/>
  <outline>
    <contour>
      <point x="629" y="863" type="line"/>
      <point x="475" y="1437" type="line"/>
      <point x="443" y="1437" type="line"/>
      <point x="289" y="863" type="line"/>
      <point x="443" y="289" type="line"/>
      <point x="475" y="289" type="line"/>
    </contour>
    <contour>
      <point x="297" y="1626" type="line"/>
      <point x="618" y="1626" type="line"/>
      <point x="847" y="863" type="line"/>
      <point x="618" y="110" type="line"/>
      <point x="297" y="110" type="line"/>
      <point x="74" y="863" type="line"/>
    </contour>
  </outline>
</glyph>
<glyph name="uniFB01" format="1">
  <advance width="1126"/>
  <unicode hex="FB01"/>
  <outline>
    <contour>
      <point x="271" y="1806"/>
      <point x="200" y="1708"/>
      <point x="200" y="1535" type="curve" smooth="yes"/>
      <point x="200" y="1500" type="line"/>
      <point x="71" y="1500" type="line"/>
      <point x="71" y="1349" type="line"/>
      <point x="200" y="1349" type="line"/>
      <point x="200" y="0" type="line"/>
      <point x="405" y="0" type="line"/>
      <point x="405" y="1349" type="line"/>
      <point x="773" y="1349" type="line"/>
      <point x="773" y="0" type="line"/>
      <point x="978" y="0" type="line"/>
      <point x="978" y="1500" type="line"/>
      <point x="405" y="1500" type="line"/>
      <point x="405" y="1543" type="line" smooth="yes"/>
      <point x="405" y="1608"/>
      <point x="420" y="1648"/>
      <point x="510" y="1648" type="curve" smooth="yes"/>
      <point x="530" y="1648"/>
      <point x="554" y="1646"/>
      <point x="581" y="1642" type="curve"/>
      <point x="581" y="1785" type="line"/>
      <point x="575" y="1787"/>
      <point x="511" y="1806"/>
      <point x="432" y="1806" type="curve" smooth="yes"/>
    </contour>
    <contour>
      <point x="773" y="1800" type="line"/>
      <point x="773" y="1611" type="line"/>
      <point x="978" y="1611" type="line"/>
      <point x="978" y="1800" type="line"/>
    </contour>
  </outline>
</glyph>
<glyph name="uniFB02" format="1">
  <advance width="1124"/>
  <unicode hex="FB02"/>
  <outline>
    <contour>
      <point x="349" y="1796"/>
      <point x="200" y="1716"/>
      <point x="200" y="1515" type="curve" smooth="yes"/>
      <point x="200" y="1442" type="line"/>
      <point x="71" y="1442" type="line"/>
      <point x="71" y="1291" type="line"/>
      <point x="200" y="1291" type="line"/>
      <point x="200" y="0" type="line"/>
      <point x="405" y="0" type="line"/>
      <point x="405" y="1291" type="line"/>
      <point x="581" y="1291" type="line"/>
      <point x="581" y="1442" type="line"/>
      <point x="405" y="1442" type="line"/>
      <point x="405" y="1523" type="line" smooth="yes"/>
      <point x="405" y="1603"/>
      <point x="474" y="1642"/>
      <point x="594" y="1642" type="curve" smooth="yes"/>
      <point x="645" y="1642"/>
      <point x="704" y="1636"/>
      <point x="771" y="1622" type="curve"/>
      <point x="771" y="0" type="line"/>
      <point x="976" y="0" type="line"/>
      <point x="976" y="1725" type="line"/>
      <point x="680" y="1788"/>
      <point x="628" y="1796"/>
      <point x="543" y="1796" type="curve" smooth="yes"/>
    </contour>
  </outline>
</glyph>
<glyph name="uniFB03" format="1">
  <advance width="1749"/>
  <unicode hex="FB03"/>
  <outline>
    <contour>
      <point x="1396" y="1800" type="line"/>
      <point x="1601" y="1800" type="line"/>
      <point x="1601" y="1611" type="line"/>
      <point x="1396" y="1611" type="line"/>
    </contour>
    <contour>
      <point x="823" y="1547" type="line" smooth="yes"/>
      <point x="823" y="1720"/>
      <point x="894" y="1818"/>
      <point x="1055" y="1818" type="curve" smooth="yes"/>
      <point x="1134" y="1818"/>
      <point x="1198" y="1799"/>
      <point x="1204" y="1797" type="curve"/>
      <point x="1204" y="1654" type="line"/>
      <point x="1177" y="1658"/>
      <point x="1153" y="1660"/>
      <point x="1133" y="1660" type="curve" smooth="yes"/>
      <point x="1043" y="1660"/>
      <point x="1028" y="1620"/>
      <point x="1028" y="1555" type="curve" smooth="yes"/>
      <point x="1028" y="1500" type="line"/>
      <point x="1601" y="1500" type="line"/>
      <point x="1601" y="0" type="line"/>
      <point x="1396" y="0" type="line"/>
      <point x="1396" y="1349" type="line"/>
      <point x="1028" y="1349" type="line"/>
      <point x="1028" y="0" type="line"/>
      <point x="823" y="0" type="line"/>
      <point x="823" y="1349" type="line"/>
      <point x="405" y="1349" type="line"/>
      <point x="405" y="0" type="line"/>
      <point x="200" y="0" type="line"/>
      <point x="200" y="1349" type="line"/>
      <point x="71" y="1349" type="line"/>
      <point x="71" y="1500" type="line"/>
      <point x="200" y="1500" type="line"/>
      <point x="200" y="1547" type="line" smooth="yes"/>
      <point x="200" y="1720"/>
      <point x="271" y="1818"/>
      <point x="432" y="1818" type="curve" smooth="yes"/>
      <point x="511" y="1818"/>
      <point x="575" y="1799"/>
      <point x="581" y="1797" type="curve"/>
      <point x="581" y="1654" type="line"/>
      <point x="554" y="1658"/>
      <point x="530" y="1660"/>
      <point x="510" y="1660" type="curve" smooth="yes"/>
      <point x="420" y="1660"/>
      <point x="405" y="1620"/>
      <point x="405" y="1555" type="curve" smooth="yes"/>
      <point x="405" y="1500" type="line"/>
      <point x="823" y="1500" type="line"/>
    </contour>
  </outline>
</glyph>
<glyph name=".notdef" format="1">
  <advance width="1024"/>
  <outline>
    <component base="N" xScale="0.613448" yScale="0.777908" xOffset="204" yOffset="196"/>
    <contour>
      <point x="102" y="1760" type="line"/>
      <point x="922" y="1760" type="line"/>
      <point x="922" y="0" type="line"/>
      <point x="102" y="0" type="line"/>
    </contour>
    <contour>
      <point x="820" y="102" type="line"/>
      <point x="820" y="1658" type="line"/>
      <point x="204" y="1658" type="line"/>
      <point x="204" y="102" type="line"/>
    </contour>
  </outline>
</glyph>
